<svg width="30" height="30" viewBox="0 0 30 30" fill="none" xmlns="http://www.w3.org/2000/svg">
<path opacity="0.6" d="M4 4V10.6M4 10.6H11.3333M4 10.6L7.66667 7.63C9.24877 6.35643 11.2065 5.52203 13.3037 5.22744C15.401 4.93285 17.5481 5.19065 19.4862 5.96976C21.4242 6.74886 23.0704 8.01598 24.2262 9.61829C25.382 11.2206 25.9981 13.0896 26 15M26 26V19.4M26 19.4H18.6667M26 19.4L22.3333 22.37C20.7512 23.6436 18.7935 24.478 16.6963 24.7726C14.599 25.0672 12.4519 24.8093 10.5138 24.0302C8.57577 23.2511 6.92956 21.984 5.77376 20.3817C4.61795 18.7794 4.00193 16.9104 4 15M16.2222 15C16.2222 15.6075 15.675 16.1 15 16.1C14.325 16.1 13.7778 15.6075 13.7778 15C13.7778 14.3925 14.325 13.9 15 13.9C15.675 13.9 16.2222 14.3925 16.2222 15Z" stroke="white" stroke-width="7.33333" stroke-linecap="round" stroke-linejoin="round"/>
</svg>
