<svg width="162" height="76" viewBox="0 0 162 76" fill="none" xmlns="http://www.w3.org/2000/svg">
<rect x="0.875" y="0.793457" width="80.6142" height="74.4131" fill="black"/>
<path d="M30.7915 40.5772H23.7171V26.4283H30.7915V40.5772ZM37.866 40.5772V26.4283H44.9404V40.5772H37.866ZM52.0149 40.5772V26.4283H59.0893V40.5772H52.0149ZM37.866 54.7261H30.7915V40.5772H37.866V54.7261ZM52.0149 54.7261H44.9404V40.5772H52.0149V54.7261Z" fill="#FF4016"/>
<rect x="81.3857" y="0.793457" width="80.6142" height="74.4131" fill="#FF4016"/>
<path d="M103.167 37.3577H101.229V27.6685H108.981V29.6063H103.167V31.5441H107.043V33.482H103.167V37.3577ZM112.857 37.3577V35.4198H110.919V29.6063H112.857V35.4198H114.794V29.6063H116.732V37.3577H112.857ZM120.608 35.4198H118.67V27.6685H120.608V29.6063H122.546V31.5441H120.608V35.4198ZM120.608 37.3577V35.4198H122.546V37.3577H120.608ZM126.421 37.3577V35.4198H124.484V29.6063H126.421V35.4198H128.359V29.6063H130.297V37.3577H126.421ZM134.173 37.3577H132.235V29.6063H136.111V31.5441H134.173V37.3577ZM139.986 35.4198H138.048V31.5441H139.986V29.6063H141.924V31.5441H143.862V33.482H139.986V35.4198ZM139.986 37.3577V35.4198H143.862V37.3577H139.986Z" fill="#F9F9F9"/>
<path d="M116.809 46.8143H114.872V41.0007H116.809V46.8143ZM118.747 46.8143V41.0007H120.685V46.8143H118.747ZM122.623 46.8143V41.0007H124.561V46.8143H122.623ZM118.747 50.6899H116.809V46.8143H118.747V50.6899ZM122.623 50.6899H120.685V46.8143H122.623V50.6899ZM126.499 41.0007V39.0629H128.436V41.0007H126.499ZM128.436 50.6899H126.499V42.9386H128.436V50.6899ZM132.312 44.8764V42.9386H136.188V44.8764H134.25V46.8143H130.374V44.8764H132.312ZM136.188 48.7521H134.25V46.8143H136.188V48.7521ZM134.25 48.7521V50.6899H130.374V48.7521H134.25ZM140.064 48.7521H138.126V44.8764H140.064V42.9386H142.001V44.8764H143.939V46.8143H140.064V48.7521ZM140.064 50.6899V48.7521H143.939V50.6899H140.064Z" fill="#F9F9F9"/>
</svg>
