<svg width="184" height="69" viewBox="0 0 184 69" fill="none" xmlns="http://www.w3.org/2000/svg">
<rect y="0.692322" width="74" height="68.3077" fill="#FF4016"/>
<path d="M27.3655 36.3141H20.8715V23.326H27.3655V36.3141ZM33.8595 36.3141V23.326H40.3535V36.3141H33.8595ZM46.8475 36.3141V23.326H53.3415V36.3141H46.8475ZM33.8595 49.3021H27.3655V36.3141H33.8595V49.3021ZM46.8475 49.3021H40.3535V36.3141H46.8475V49.3021Z" fill="black"/>
<path d="M97.776 12.8531V8.56633H102.063V12.8531H97.776ZM97.776 30H93.4893V12.8531H97.776V17.1398H102.063V21.4265H97.776V30ZM110.636 30V25.7133H106.349V12.8531H110.636V25.7133H114.923V12.8531H119.21V30H110.636ZM127.783 25.7133H123.496V8.56633H127.783V12.8531H132.07V17.1398H127.783V25.7133ZM127.783 30V25.7133H132.07V30H127.783ZM140.643 30V25.7133H136.357V12.8531H140.643V25.7133H144.93V12.8531H149.217V30H140.643ZM157.79 30H153.504V12.8531H162.077V17.1398H157.79V30ZM170.651 25.7133H166.364V17.1398H170.651V12.8531H174.937V17.1398H179.224V21.4265H170.651V25.7133ZM170.651 30V25.7133H179.224V30H170.651Z" fill="#E7E9EA"/>
<path d="M97.4929 50.7599H93.2061V42.1864H97.4929V50.7599ZM101.78 50.7599V42.1864H106.066V50.7599H101.78ZM110.353 50.7599V42.1864H114.64V50.7599H110.353ZM101.78 59.3334H97.4929V50.7599H101.78V59.3334ZM110.353 59.3334H106.066V50.7599H110.353V59.3334ZM118.927 37.8997V33.613H123.213V37.8997H118.927ZM123.213 59.3334H118.927V42.1864H123.213V59.3334ZM131.787 46.4732V42.1864H140.36V46.4732H136.073V50.7599H127.5V46.4732H131.787ZM140.36 55.0466H136.073V50.7599H140.36V55.0466ZM136.073 55.0466V59.3334H127.5V55.0466H136.073ZM148.934 55.0466H144.647V46.4732H148.934V42.1864H153.22V46.4732H157.507V50.7599H148.934V55.0466ZM148.934 59.3334V55.0466H157.507V59.3334H148.934Z" fill="#E7E9EA"/>
</svg>
