<svg width="167" height="38" viewBox="0 0 167 38" fill="none" xmlns="http://www.w3.org/2000/svg">
<g clip-path="url(#clip0_358_597)">
<mask id="mask0_358_597" style="mask-type:luminance" maskUnits="userSpaceOnUse" x="143" y="0" width="24" height="27">
<path d="M157.603 0.297363V2.83707L160.64 4.05086L156.584 10.968L152.183 3.35866L154.249 3.04668V0.297363H143.101V3.02231L145.846 3.5049L152.612 15.3114V23.0329L149.867 23.4764V26.1819H160.806V23.4764L158.061 23.0329V14.3413L163.911 4.32872L166.48 2.6957V0.297363H157.603Z" fill="white"/>
</mask>
<g mask="url(#mask0_358_597)">
<path d="M167.743 -11.2019H144.607V44.8033H167.743V-11.2019Z" fill="#4C89C8"/>
<path d="M146.825 0.141357C139.635 0.141357 132.738 2.99789 127.654 8.08256C122.569 13.1672 119.712 20.0635 119.712 27.2543H146.825V0.141357Z" fill="#B8CADB"/>
<path d="M160.382 13.698H146.825V27.2545H160.382V13.698Z" fill="#4C89C8"/>
<path d="M160.382 13.698V27.2545H146.825" fill="#212639"/>
<path d="M160.382 0.141357H146.825V13.6978H160.382V0.141357Z" fill="#4C89C8"/>
</g>
<mask id="mask1_358_597" style="mask-type:luminance" maskUnits="userSpaceOnUse" x="0" y="0" width="22" height="27">
<path d="M17.1247 1.60366C17.8162 1.98322 18.4168 2.50888 18.8845 3.14406C19.631 4.26782 20.0046 5.5982 19.9521 6.94631C19.9882 7.9861 19.7451 9.01659 19.2478 9.9305C18.7506 10.8444 18.0174 11.6083 17.1247 12.1427V12.3328C17.8956 12.6537 18.6163 13.0838 19.2647 13.61C19.9982 14.2277 20.5801 15.0056 20.9654 15.8837C21.3508 16.7619 21.5295 17.7167 21.4876 18.6748C21.4876 21.234 20.5126 23.1692 18.6018 24.4318C16.8371 25.5968 14.468 26.1818 11.5579 26.1818H0V23.4763L2.72007 23.0327V3.45604L0 3.04169V0.29725H10.1393C11.9661 0.243046 13.791 0.458216 15.5551 0.935832C15.7257 0.989454 15.8914 1.04795 16.0426 1.11132L17.1247 1.60366Z" fill="white"/>
</mask>
<g mask="url(#mask1_358_597)">
<path d="M23.2571 -6.20557H-8.01392V34.2933H23.2571V-6.20557Z" fill="#F79224"/>
<path d="M11.4847 13.3323H-1.60864V26.4257H11.4847V13.3323Z" fill="#293E3F"/>
<path d="M11.4847 0.23877H-1.60864V13.3322H11.4847V0.23877Z" fill="#293E3F"/>
<path d="M11.4849 20.3177C15.1006 20.3177 18.0316 17.3867 18.0316 13.7711C18.0316 10.1554 15.1006 7.22437 11.4849 7.22437C7.86929 7.22437 4.93823 10.1554 4.93823 13.7711C4.93823 17.3867 7.86929 20.3177 11.4849 20.3177Z" fill="#226246"/>
</g>
<mask id="mask2_358_597" style="mask-type:luminance" maskUnits="userSpaceOnUse" x="29" y="0" width="24" height="27">
<path d="M50.5844 21.2487L49.7654 22.0725C49.5588 22.2824 49.3242 22.4628 49.0684 22.6087C48.9566 22.6777 48.8324 22.7241 48.7028 22.7452C48.4803 22.1411 48.3393 21.5099 48.2835 20.8685L47.8984 18.3288C47.6858 16.7666 46.9544 15.3211 45.8218 14.2243C45.5212 13.9425 45.1947 13.6896 44.8469 13.4687C47.9179 12.0648 48.6589 9.50562 48.6589 7.36076C48.6589 4.92342 47.7717 3.0808 46.0217 1.85725C44.3935 0.706828 41.9221 0.14624 38.4221 0.14624H29.0237V2.89556L31.7389 3.30991V22.911L29.0237 23.3546V26.06H39.9722V23.3302L37.2473 22.911V14.5753H38.4221C39.6115 14.5753 40.4645 14.8385 40.9569 15.3601C41.565 16.0737 41.9394 16.9568 42.0293 17.8901L42.5948 21.8483C42.8336 23.3936 43.3065 24.4952 44.0572 25.207C44.9536 25.9927 46.1235 26.3937 47.3135 26.3233C48.1535 26.327 48.9846 26.1508 49.7508 25.8065C50.5823 25.4107 51.3188 24.8404 51.9103 24.1345L52.5927 23.3984L50.5844 21.2487Z" fill="white"/>
</mask>
<g mask="url(#mask2_358_597)">
<path d="M50.487 -3.8999H29.5308V29.6622H50.487V-3.8999Z" fill="#F79224"/>
<path d="M33.6011 -0.453613C26.6572 -0.453613 19.9977 2.30483 15.0877 7.21488C10.1776 12.1249 7.41919 18.7844 7.41919 25.7283H33.6011V-0.453613Z" fill="#80A9A8"/>
<path d="M33.6012 12.6399V25.7284H20.5078" fill="#BD8836"/>
<path d="M32.0168 12.6399V25.7284H45.1054" fill="#BD8836"/>
<path d="M45.1102 -0.453613H32.0168V12.6398H45.1102V-0.453613Z" fill="#80A9A8"/>
<path d="M45.1055 19.6205C48.7212 19.6205 51.6522 16.6894 51.6522 13.0738C51.6522 9.45815 48.7212 6.5271 45.1055 6.5271C41.4899 6.5271 38.5588 9.45815 38.5588 13.0738C38.5588 16.6894 41.4899 19.6205 45.1055 19.6205Z" fill="#293E3F"/>
</g>
<mask id="mask3_358_597" style="mask-type:luminance" maskUnits="userSpaceOnUse" x="57" y="0" width="26" height="27">
<path d="M79.5059 23.2815L71.3993 0H69.347L60.7042 22.6916L57.5649 23.9737V26.4792H66.1444V23.998L63.7948 22.9549L65.5204 18.475H71.8087L73.5929 23.4472L71.565 23.7689V26.4792H82.5087V23.7738L79.5059 23.2815Z" fill="white"/>
</mask>
<g mask="url(#mask3_358_597)">
<path d="M83.162 -33.3721H56.9363V33.6499H83.162V-33.3721Z" fill="#4C89C8"/>
<path d="M104.806 -0.219482C97.6148 -0.219482 90.7185 2.63705 85.6338 7.72172C80.5492 12.8064 77.6926 19.7027 77.6926 26.8935H104.806V-0.219482Z" fill="#B8CADB"/>
<path d="M50.575 13.3372V26.8936H64.1314" fill="#BD8836"/>
<path d="M64.1314 -0.219482H50.575V13.337H64.1314V-0.219482Z" fill="#80A9A8"/>
<path d="M64.1315 20.5662C67.8737 20.5662 70.9073 17.5326 70.9073 13.7904C70.9073 10.0483 67.8737 7.01465 64.1315 7.01465C60.3893 7.01465 57.3557 10.0483 57.3557 13.7904C57.3557 17.5326 60.3893 20.5662 64.1315 20.5662Z" fill="#293E3F"/>
</g>
<mask id="mask4_358_597" style="mask-type:luminance" maskUnits="userSpaceOnUse" x="87" y="0" width="26" height="27">
<path d="M109.149 23.2815L101.042 0H98.9901L90.3522 22.6916L87.208 23.9737V26.4792H95.7874V23.998L93.4427 22.9549L95.1684 18.475H101.457L103.241 23.4472L101.213 23.7689V26.4792H112.152V23.7738L109.149 23.2815Z" fill="white"/>
</mask>
<g mask="url(#mask4_358_597)">
<path d="M115.539 -6.06421H83.1619V35.7118H115.539V-6.06421Z" fill="#4C89C8"/>
<path d="M112.152 13.2395V26.796H98.5952" fill="#B8CADB"/>
<path d="M98.5998 13.2395L112.156 13.2395V-0.316975L98.5998 -0.316975V13.2395Z" fill="#293E3F"/>
<path d="M98.5952 20.4737C99.5006 20.498 100.402 20.3406 101.245 20.0109C102.089 19.6812 102.858 19.1858 103.507 18.554C104.156 17.9222 104.672 17.1667 105.024 16.3323C105.376 15.4978 105.558 14.6012 105.558 13.6955C105.558 12.7897 105.376 11.8931 105.024 11.0587C104.672 10.2242 104.156 9.46878 103.507 8.83696C102.858 8.20514 102.089 7.70975 101.245 7.38003C100.402 7.05031 99.5006 6.89295 98.5952 6.91723" fill="#4C89C8"/>
<path d="M98.595 20.4735C96.8287 20.4261 95.1508 19.6912 93.9183 18.4252C92.6858 17.1592 91.9961 15.4621 91.9961 13.6952C91.9961 11.9284 92.6858 10.2313 93.9183 8.96528C95.1508 7.69928 96.8287 6.96436 98.595 6.91699" fill="#BD8836"/>
</g>
<mask id="mask5_358_597" style="mask-type:luminance" maskUnits="userSpaceOnUse" x="116" y="0" width="26" height="27">
<path d="M138.797 23.2815L130.69 0H128.638L120 22.6916L116.856 23.9737V26.4792H125.435V23.998L123.086 22.9549L124.816 18.475H131.105L132.884 23.4472L130.856 23.7689V26.4792H141.8V23.7738L138.797 23.2815Z" fill="white"/>
</mask>
<g mask="url(#mask5_358_597)">
<path d="M131.251 -13.1665H120.166V35.4243H131.251V-13.1665Z" fill="#4C89C8"/>
<path d="M127.956 -0.487549C120.765 -0.487549 113.869 2.36899 108.784 7.45365C103.699 12.5383 100.843 19.4346 100.843 26.6254H127.956V-0.487549Z" fill="#B8CADB"/>
<path d="M141.512 13.0688H127.956V26.6253H141.512V13.0688Z" fill="#4C89C8"/>
<path d="M141.512 13.0688V26.6253H127.956" fill="#212639"/>
<path d="M141.512 -0.487549H127.956V13.0689H141.512V-0.487549Z" fill="#4C89C8"/>
</g>
<path d="M3.17343 35.6143H1.46242V36.8964H3.46104V37.4716H0.740967V33.3135H3.44154V33.8936H1.46242V35.044H3.17343V35.6143Z" fill="#293E3F"/>
<path d="M7.40946 34.8149L8.2869 33.3135H9.12534L7.86768 35.3755L9.14972 37.4716H8.2869L7.40946 35.9458L6.51252 37.4716H5.67407L6.96099 35.3755L5.70332 33.3135H6.53689L7.40946 34.8149Z" fill="#293E3F"/>
<path d="M12.3328 35.9312V37.4716H11.6113V33.3135H13.2005C13.6013 33.2924 13.9957 33.421 14.307 33.6743C14.4442 33.7958 14.5525 33.9463 14.6242 34.115C14.6959 34.2836 14.7291 34.4661 14.7214 34.6492C14.7335 34.8319 14.7033 35.0149 14.6331 35.184C14.563 35.3531 14.4547 35.5037 14.3168 35.6241C13.9953 35.8671 13.5979 35.988 13.1956 35.9654L12.3328 35.9312ZM12.3328 35.3463H13.2005C13.4127 35.3618 13.6231 35.2975 13.7903 35.1659C13.8608 35.0984 13.9157 35.0163 13.9511 34.9254C13.9865 34.8344 14.0015 34.7368 13.995 34.6394C14 34.5407 13.9844 34.4421 13.9491 34.3498C13.9139 34.2575 13.8598 34.1735 13.7903 34.1032C13.6352 33.961 13.4303 33.8857 13.22 33.8936H12.3328V35.3463Z" fill="#293E3F"/>
<path d="M19.713 35.6143H18.002V36.8964H19.986V37.4716H17.2805V33.3135H19.986V33.8936H18.002V35.044H19.713V35.6143Z" fill="#293E3F"/>
<path d="M24.0468 35.8727H23.2424V37.4716H22.521V33.3135H23.9834C24.3785 33.2879 24.7701 33.4017 25.09 33.6352C25.3047 33.844 25.4409 34.1204 25.4755 34.4179C25.5101 34.7154 25.4411 35.0157 25.2801 35.2682C25.1385 35.4634 24.9439 35.6139 24.7195 35.7021L25.6554 37.4326V37.4716H24.8608L24.0468 35.8727ZM23.2424 35.2877H23.9834C24.1909 35.3004 24.3953 35.2323 24.5537 35.0976C24.6207 35.0357 24.6736 34.9601 24.7089 34.8761C24.7442 34.792 24.7611 34.7013 24.7585 34.6101C24.7642 34.516 24.7507 34.4216 24.7189 34.3328C24.687 34.244 24.6375 34.1625 24.5732 34.0934C24.4141 33.96 24.2102 33.8921 24.0029 33.9033H23.2424V35.2877Z" fill="#293E3F"/>
<path d="M28.8631 37.4716H28.1416V33.3135H28.8631V37.4716Z" fill="#293E3F"/>
<path d="M34.1226 35.6144H32.4019V36.8964H34.4005V37.4716H31.6853V33.3135H34.3859V33.8936H32.4019V35.044H34.1226V35.6144ZM34.0398 32.9674V33.0015H33.4743L33.0453 32.558L32.6212 33.0015H32.0704V32.9626L32.8406 32.1729H33.2501L34.0398 32.9674Z" fill="#293E3F"/>
<path d="M40.2162 37.4716H39.485L37.6326 34.5224V37.4716H36.9209V33.3135H37.6424L39.485 36.2724V33.3135H40.2162V37.4716Z" fill="#293E3F"/>
<path d="M46.1729 36.1165C46.1639 36.3132 46.1162 36.5061 46.0326 36.6842C45.9489 36.8624 45.831 37.0223 45.6854 37.1548C45.3643 37.4161 44.9582 37.5497 44.5447 37.5302C44.2388 37.5398 43.9369 37.4588 43.6767 37.2976C43.4166 37.1363 43.2098 36.9018 43.0823 36.6235C42.9487 36.3044 42.8855 35.9602 42.8971 35.6144V35.2245C42.8892 34.8692 42.9591 34.5165 43.1018 34.191C43.229 33.9062 43.4376 33.6653 43.7014 33.4988C43.9729 33.3338 44.2856 33.2493 44.6032 33.2551C45.0062 33.2366 45.4013 33.3706 45.7098 33.6305C46.0037 33.9042 46.1787 34.2822 46.1973 34.6834H45.4563C45.4462 34.4433 45.3532 34.2142 45.1931 34.0351C45.021 33.8936 44.801 33.8238 44.5789 33.8401C44.439 33.8326 44.2995 33.8598 44.1728 33.9193C44.0461 33.9789 43.936 34.0689 43.8525 34.1813C43.6659 34.4854 43.5758 34.8389 43.5942 35.1952V35.5852C43.5712 35.9447 43.6561 36.3028 43.8379 36.6138C43.9144 36.7297 44.0199 36.8235 44.1439 36.8859C44.2679 36.9484 44.4061 36.9772 44.5447 36.9696C44.7737 36.9867 45.001 36.9191 45.1833 36.7795C45.3467 36.6054 45.4433 36.3793 45.4563 36.1409L46.1729 36.1165Z" fill="#293E3F"/>
<path d="M49.5122 37.4716H48.7957V33.3135H49.5122V37.4716Z" fill="#293E3F"/>
<path d="M54.6598 36.5015H53.0512L52.7099 37.4765H51.9592L53.5338 33.3184H54.1821L55.7517 37.4765H55.001L54.6598 36.5015ZM53.251 35.9214H54.4551L53.8555 34.1958L53.251 35.9214Z" fill="#293E3F"/>
<path d="M60.3292 36.3992C60.3345 36.3191 60.3199 36.2389 60.2867 36.1658C60.2535 36.0926 60.2028 36.0288 60.1391 35.98C59.9251 35.8412 59.6895 35.7391 59.442 35.6778C59.1623 35.6001 58.8936 35.4871 58.6425 35.3414C58.4728 35.2515 58.3303 35.1177 58.23 34.9539C58.1297 34.7901 58.0752 34.6024 58.0722 34.4103C58.0695 34.2496 58.1052 34.0905 58.1765 33.9464C58.2477 33.8022 58.3523 33.6772 58.4817 33.5817C58.7889 33.3522 59.1663 33.2368 59.5492 33.2551C59.8148 33.2502 60.078 33.3052 60.3194 33.4159C60.5367 33.5144 60.7224 33.6714 60.8556 33.8693C60.9828 34.0652 61.0506 34.2938 61.0506 34.5273H60.3292C60.3312 34.4363 60.314 34.3458 60.2787 34.2618C60.2435 34.1778 60.1909 34.1022 60.1244 34.0399C59.9597 33.9244 59.7645 33.86 59.5634 33.8548C59.3622 33.8496 59.164 33.9038 58.9935 34.0106C58.9279 34.0584 58.8753 34.1217 58.8404 34.1949C58.8055 34.2681 58.7895 34.3489 58.7936 34.4298C58.7945 34.5062 58.8146 34.581 58.8521 34.6475C58.8896 34.7139 58.9433 34.7699 59.0081 34.8101C59.2224 34.9471 59.458 35.0476 59.7052 35.1074C59.978 35.1851 60.24 35.2964 60.4852 35.4389C60.6597 35.5422 60.8069 35.686 60.9141 35.8581C61.0088 36.0295 61.056 36.223 61.0506 36.4187C61.0579 36.5786 61.0257 36.7379 60.9568 36.8824C60.888 37.027 60.7846 37.1523 60.6558 37.2474C60.339 37.4668 59.9584 37.5748 59.5736 37.5545C59.2883 37.5574 59.0058 37.4993 58.7449 37.3839C58.5096 37.2888 58.3054 37.1301 58.1551 36.9257C58.0126 36.7253 57.9391 36.4841 57.9454 36.2384H58.6669C58.6611 36.342 58.6792 36.4455 58.7198 36.541C58.7603 36.6365 58.8223 36.7214 58.9009 36.7892C59.0966 36.928 59.3342 36.9952 59.5736 36.9793C59.7737 36.9943 59.9731 36.9411 60.1391 36.8282C60.2043 36.7785 60.2559 36.7131 60.2891 36.6381C60.3223 36.5631 60.3361 36.4809 60.3292 36.3992Z" fill="#293E3F"/>
<path d="M66.9683 35.2683C66.9657 35.1863 66.9799 35.1046 67.0101 35.0283C67.0402 34.952 67.0858 34.8827 67.1438 34.8247C67.2322 34.7322 67.3464 34.6685 67.4716 34.6421C67.5968 34.6158 67.7271 34.6279 67.8452 34.677C67.9634 34.726 68.0639 34.8097 68.1336 34.917C68.2033 35.0243 68.2389 35.1502 68.2357 35.2781V35.3853C68.2385 35.4657 68.2252 35.5459 68.1968 35.6212C68.1683 35.6965 68.1252 35.7655 68.07 35.824C67.9397 35.9297 67.7771 35.9874 67.6094 35.9874C67.4416 35.9874 67.279 35.9297 67.1487 35.824C67.0911 35.7685 67.0454 35.7018 67.0144 35.6281C66.9834 35.5543 66.9677 35.475 66.9683 35.395V35.2683Z" fill="#293E3F"/>
<path d="M75.8304 36.56L76.8834 33.3086H77.6779L76.1814 37.4667H75.4843L73.9927 33.3086H74.7824L75.8304 36.56Z" fill="#293E3F"/>
<path d="M80.8418 37.4716H80.1204V33.3135H80.8418V37.4716Z" fill="#293E3F"/>
<path d="M86.9596 37.4716H86.2381L84.3809 34.5224V37.4716H83.6594V33.3135H84.3809L86.243 36.2724V33.3135H86.9596V37.4716Z" fill="#293E3F"/>
<path d="M93.0431 37.4716H92.3265V35.6241H90.4644V37.4716H89.7429V33.3135H90.4644V35.044H92.3265V33.3135H93.0431V37.4716Z" fill="#293E3F"/>
<path d="M99.1461 35.5022C99.1584 35.8643 99.0936 36.2249 98.9559 36.56C98.8289 36.8503 98.6186 37.0963 98.3515 37.2668C98.1501 37.399 97.9225 37.486 97.6844 37.522C97.4462 37.558 97.2031 37.5422 96.9716 37.4755C96.7402 37.4088 96.5259 37.293 96.3433 37.1358C96.1608 36.9786 96.0144 36.7839 95.9141 36.5649C95.7665 36.2321 95.6933 35.8711 95.6997 35.5071V35.2731C95.691 34.9042 95.7642 34.5379 95.9141 34.2007C96.0425 33.9138 96.2528 33.6713 96.5186 33.5036C96.7887 33.3348 97.102 33.2484 97.4204 33.255C97.7364 33.2498 98.0474 33.3343 98.3174 33.4987C98.5956 33.6636 98.818 33.9081 98.9559 34.2007C99.1041 34.5367 99.1773 34.901 99.1704 35.2682L99.1461 35.5022ZM98.4246 35.2828C98.447 34.9123 98.357 34.5436 98.1662 34.225C98.0797 34.1137 97.9688 34.0235 97.842 33.9616C97.7153 33.8996 97.5761 33.8673 97.435 33.8673C97.294 33.8673 97.1548 33.8996 97.028 33.9616C96.9013 34.0235 96.7904 34.1137 96.7038 34.225C96.5118 34.5362 96.4184 34.8981 96.4357 35.2634V35.5071C96.4124 35.879 96.5062 36.2489 96.7038 36.5649C96.7855 36.6851 96.8963 36.7826 97.0259 36.8482C97.1555 36.9139 97.2996 36.9455 97.4448 36.9402C97.5884 36.9467 97.7313 36.9165 97.8601 36.8525C97.9888 36.7886 98.0992 36.693 98.1809 36.5746C98.375 36.2539 98.4652 35.8811 98.4392 35.5071L98.4246 35.2828Z" fill="#293E3F"/>
<path d="M103.972 36.3992C103.977 36.3186 103.961 36.2382 103.927 36.165C103.893 36.0918 103.842 36.0283 103.777 35.98C103.565 35.8401 103.331 35.7379 103.085 35.6778C102.805 35.6001 102.536 35.4871 102.285 35.3414C102.116 35.2515 101.973 35.1177 101.873 34.9539C101.772 34.7901 101.718 34.6024 101.715 34.4103C101.712 34.2496 101.748 34.0905 101.819 33.9463C101.891 33.8022 101.995 33.6772 102.124 33.5816C102.43 33.3529 102.806 33.2375 103.187 33.255C103.454 33.2496 103.719 33.3046 103.962 33.4159C104.18 33.5144 104.365 33.6713 104.498 33.8692C104.626 34.0652 104.693 34.2937 104.693 34.5273H103.972C103.974 34.4363 103.957 34.3458 103.922 34.2618C103.886 34.1778 103.834 34.1022 103.767 34.0399C103.602 33.9073 103.394 33.8412 103.182 33.8546C102.986 33.8439 102.793 33.8988 102.631 34.0106C102.567 34.0589 102.515 34.1225 102.481 34.1956C102.447 34.2688 102.432 34.3493 102.436 34.4298C102.437 34.5061 102.457 34.581 102.495 34.6475C102.532 34.7139 102.586 34.7699 102.651 34.8101C102.864 34.9432 103.098 35.0404 103.343 35.0977C103.616 35.1753 103.878 35.2867 104.123 35.4291C104.298 35.5324 104.445 35.6762 104.552 35.8484C104.647 36.0197 104.694 36.2133 104.689 36.409C104.695 36.5693 104.662 36.7289 104.593 36.8734C104.523 37.018 104.419 37.1431 104.289 37.2376C103.974 37.4577 103.595 37.5658 103.212 37.5447C102.926 37.5477 102.644 37.4895 102.383 37.3741C102.148 37.279 101.943 37.1203 101.793 36.9159C101.651 36.7155 101.577 36.4743 101.583 36.2286H102.305C102.299 36.3322 102.317 36.4357 102.358 36.5312C102.398 36.6267 102.46 36.7117 102.539 36.7794C102.735 36.9183 102.972 36.9854 103.212 36.9695C103.412 36.9846 103.611 36.9313 103.777 36.8184C103.842 36.7701 103.893 36.7066 103.927 36.6334C103.961 36.5602 103.977 36.4798 103.972 36.3992Z" fill="#293E3F"/>
<path d="M110.612 35.2683C110.609 35.1863 110.623 35.1046 110.653 35.0283C110.684 34.952 110.729 34.8827 110.787 34.8247C110.875 34.7322 110.99 34.6685 111.115 34.6421C111.24 34.6158 111.37 34.6279 111.489 34.677C111.607 34.726 111.707 34.8097 111.777 34.917C111.847 35.0243 111.882 35.1502 111.879 35.2781V35.3853C111.882 35.4662 111.869 35.5469 111.839 35.6224C111.81 35.6979 111.765 35.7665 111.708 35.824C111.646 35.8813 111.573 35.9256 111.494 35.954C111.414 35.9825 111.33 35.9947 111.245 35.9898C111.079 35.9973 110.916 35.9396 110.792 35.8289C110.734 35.7734 110.689 35.7067 110.658 35.6329C110.627 35.5592 110.611 35.4799 110.612 35.3999V35.2683Z" fill="#293E3F"/>
<path d="M121.18 36.1164C121.161 36.5134 120.986 36.8868 120.692 37.1547C120.371 37.4164 119.965 37.5501 119.552 37.5301C119.244 37.5375 118.94 37.4545 118.679 37.2912C118.422 37.1311 118.219 36.8987 118.094 36.6234C117.95 36.3065 117.877 35.9622 117.88 35.6143V35.2244C117.872 34.8686 117.943 34.5155 118.089 34.1909C118.213 33.9054 118.42 33.6641 118.684 33.4987C118.955 33.3342 119.268 33.2497 119.586 33.255C119.99 33.2372 120.386 33.371 120.697 33.6303C120.987 33.9068 121.162 34.2832 121.185 34.6833H120.463C120.452 34.4442 120.361 34.2158 120.205 34.0349C120.031 33.8928 119.809 33.8229 119.586 33.84C119.447 33.8324 119.308 33.8596 119.182 33.9192C119.056 33.9788 118.947 34.0688 118.864 34.1812C118.675 34.4843 118.585 34.8385 118.606 35.1951V35.5851C118.582 35.944 118.665 36.3021 118.845 36.6136C118.921 36.7292 119.027 36.8228 119.151 36.8852C119.275 36.9476 119.413 36.9766 119.552 36.9695C119.782 36.9869 120.011 36.9193 120.195 36.7794C120.357 36.6048 120.452 36.3786 120.463 36.1408L121.18 36.1164Z" fill="#293E3F"/>
<path d="M127.073 35.5022C127.082 35.8706 127.01 36.2365 126.864 36.5746C126.735 36.8656 126.523 37.1117 126.254 37.2815C125.982 37.4496 125.668 37.5359 125.348 37.5301C125.03 37.5367 124.718 37.4501 124.45 37.2812C124.181 37.1123 123.968 36.8683 123.837 36.5795C123.689 36.2464 123.615 35.8859 123.617 35.5217V35.2877C123.61 34.9184 123.685 34.5521 123.837 34.2153C123.963 33.9237 124.174 33.6761 124.441 33.5036C124.712 33.3361 125.025 33.2498 125.343 33.255C125.66 33.2497 125.973 33.3342 126.245 33.4987C126.511 33.6696 126.722 33.9132 126.854 34.2007C127.002 34.5367 127.075 34.901 127.068 35.2682L127.073 35.5022ZM126.352 35.2829C126.375 34.9115 126.283 34.5421 126.089 34.2251C126.003 34.1128 125.892 34.0219 125.765 33.9594C125.638 33.8968 125.499 33.8642 125.357 33.8642C125.216 33.8642 125.077 33.8968 124.95 33.9594C124.823 34.0219 124.712 34.1128 124.626 34.2251C124.432 34.5353 124.339 34.8979 124.358 35.2634V35.5071C124.336 35.8783 124.428 36.2474 124.621 36.5649C124.704 36.6841 124.815 36.7809 124.944 36.8464C125.074 36.9119 125.217 36.9442 125.362 36.9402C125.507 36.9475 125.651 36.9178 125.78 36.8538C125.91 36.7898 126.021 36.6937 126.103 36.5746C126.295 36.253 126.385 35.8809 126.362 35.5071L126.352 35.2829Z" fill="#293E3F"/>
<path d="M133.025 37.4716H132.299L130.447 34.5224V37.4716H129.725V33.3135H130.447L132.304 36.2724V33.3135H133.025V37.4716Z" fill="#293E3F"/>
<path d="M138.236 35.6143H136.53V36.8964H138.529V37.4716H135.809V33.3135H138.504V33.8936H136.53V35.044H138.236V35.6143Z" fill="#293E3F"/>
<path d="M142.477 34.8149L143.35 33.3135H144.183L142.926 35.3755L144.212 37.4716H143.369L142.477 35.9458L141.58 37.4716H140.742L142.029 35.3755L140.766 33.3135H141.605L142.477 34.8149Z" fill="#293E3F"/>
<path d="M149.994 35.5023C150.002 35.8707 149.931 36.2365 149.784 36.5747C149.653 36.867 149.438 37.1133 149.165 37.2815C148.893 37.4443 148.581 37.5302 148.263 37.5302C147.946 37.5302 147.634 37.4443 147.362 37.2815C147.097 37.1048 146.89 36.8538 146.767 36.5601C146.616 36.2283 146.541 35.8669 146.548 35.5023V35.2683C146.539 34.8994 146.612 34.5331 146.762 34.1959C146.889 33.903 147.102 33.655 147.371 33.4842C147.641 33.3154 147.955 33.229 148.273 33.2356C148.589 33.2304 148.9 33.3149 149.17 33.4793C149.438 33.6487 149.649 33.8927 149.779 34.1812C149.928 34.5173 150.001 34.8816 149.994 35.2488V35.5023ZM149.326 32.2606C149.332 32.4507 149.267 32.6361 149.146 32.7822C149.09 32.8496 149.02 32.9035 148.941 32.9399C148.861 32.9762 148.775 32.9939 148.688 32.9918C148.623 32.9947 148.559 32.9864 148.497 32.9674C148.416 32.9398 148.338 32.9039 148.263 32.8602C148.198 32.8176 148.128 32.7832 148.054 32.7578C148.009 32.7504 147.963 32.7504 147.917 32.7578C147.882 32.7575 147.848 32.7648 147.816 32.7791C147.784 32.7934 147.755 32.8144 147.732 32.8407C147.682 32.8985 147.655 32.9736 147.659 33.0503H147.23C147.225 32.8566 147.291 32.6678 147.415 32.519C147.468 32.4511 147.537 32.3965 147.614 32.3593C147.692 32.3221 147.778 32.3033 147.864 32.3045C148.004 32.3136 148.14 32.359 148.259 32.4361C148.373 32.5083 148.504 32.5518 148.639 32.5629C148.674 32.5632 148.708 32.5559 148.74 32.5416C148.772 32.5273 148.801 32.5063 148.824 32.48C148.875 32.4207 148.902 32.3438 148.897 32.2655L149.326 32.2606ZM149.273 35.2829C149.295 34.9123 149.205 34.5436 149.014 34.2251C148.928 34.1137 148.817 34.0236 148.69 33.9616C148.563 33.8996 148.424 33.8674 148.283 33.8674C148.142 33.8674 148.003 33.8996 147.876 33.9616C147.749 34.0236 147.638 34.1137 147.552 34.2251C147.36 34.5363 147.266 34.8982 147.284 35.2634V35.5072C147.26 35.8791 147.354 36.249 147.552 36.565C147.633 36.6851 147.744 36.7826 147.874 36.8483C148.003 36.9139 148.148 36.9456 148.293 36.9403C148.436 36.9467 148.579 36.9166 148.708 36.8526C148.837 36.7887 148.947 36.693 149.029 36.5747C149.223 36.254 149.313 35.8811 149.287 35.5072L149.273 35.2829Z" fill="#293E3F"/>
<path d="M155.078 35.6143H153.367V36.8964H155.366V37.4716H152.646V33.3135H155.346V33.8936H153.367V35.044H155.078V35.6143Z" fill="#293E3F"/>
<path d="M160.06 36.3992C160.065 36.3186 160.05 36.2382 160.015 36.165C159.981 36.0918 159.93 36.0283 159.865 35.98C159.652 35.8403 159.416 35.7381 159.168 35.6778C158.889 35.5981 158.621 35.4852 158.369 35.3414C158.2 35.2505 158.059 35.1162 157.96 34.9526C157.86 34.789 157.806 34.6018 157.803 34.4103C157.8 34.2496 157.836 34.0905 157.907 33.9463C157.979 33.8022 158.083 33.6772 158.213 33.5816C158.518 33.3529 158.894 33.2375 159.275 33.255C159.542 33.2508 159.807 33.3057 160.05 33.4159C160.266 33.5145 160.45 33.6715 160.582 33.8692C160.711 34.0642 160.779 34.2934 160.777 34.5273H160.06C160.062 34.4363 160.045 34.3458 160.01 34.2618C159.974 34.1778 159.922 34.1022 159.855 34.0399C159.69 33.9073 159.482 33.8412 159.27 33.8546C159.075 33.8432 158.88 33.8981 158.72 34.0106C158.655 34.0589 158.603 34.1225 158.569 34.1956C158.535 34.2688 158.52 34.3493 158.525 34.4298C158.524 34.5058 158.544 34.5805 158.58 34.647C158.617 34.7135 158.67 34.7696 158.734 34.8101C158.949 34.9462 159.184 35.0466 159.431 35.1074C159.705 35.1831 159.967 35.2945 160.211 35.4389C160.387 35.5421 160.536 35.6858 160.645 35.8581C160.737 36.0303 160.784 36.2233 160.782 36.4187C160.788 36.5791 160.755 36.7386 160.686 36.8832C160.616 37.0277 160.512 37.1528 160.382 37.2474C160.066 37.4681 159.685 37.5763 159.3 37.5545C159.015 37.5564 158.732 37.4983 158.471 37.3839C158.236 37.2887 158.032 37.1301 157.881 36.9257C157.741 36.7242 157.668 36.4838 157.672 36.2383H158.398C158.392 36.3419 158.41 36.4455 158.451 36.541C158.491 36.6365 158.553 36.7214 158.632 36.7892C158.826 36.9273 159.062 36.9944 159.3 36.9793C159.511 36.9922 159.72 36.93 159.89 36.8038C159.948 36.7544 159.993 36.6921 160.023 36.6218C160.053 36.5515 160.065 36.4753 160.06 36.3992Z" fill="#293E3F"/>
</g>
<defs>
<clipPath id="clip0_358_597">
<rect width="166.48" height="37.5301" fill="white"/>
</clipPath>
</defs>
</svg>
