<svg width="310" height="121" viewBox="0 0 310 121" fill="none" xmlns="http://www.w3.org/2000/svg">
<path d="M55.7917 120.909C52.515 120.909 49.3919 120.026 46.5249 118.415L9.91816 97.5277C4.13277 94.3063 0.600098 88.279 0.600098 81.7321V40.0608C0.600098 33.5139 4.13277 27.4346 9.86697 24.2132L46.5249 3.32553C52.3102 0.104055 59.3244 0.104055 65.1098 3.32553L101.716 24.2132C107.502 27.4346 110.983 33.4619 110.983 40.0088V81.6802C110.983 88.227 107.451 94.3063 101.716 97.4758L65.1098 118.363C62.1915 120.026 59.0684 120.909 55.7917 120.909ZM55.7917 2.96182C53.539 2.96182 51.2863 3.58533 49.136 4.67647L9.76457 27.1749C5.77111 29.513 3.10881 33.8256 3.10881 38.3981V83.2389C3.10881 87.9153 5.61752 92.124 9.76457 94.4621L49.136 116.857C53.1294 119.195 58.3004 119.195 62.2939 116.857L101.665 94.4621C105.659 92.124 108.321 87.8113 108.321 83.2389V38.45C108.321 33.7737 105.812 29.565 101.665 27.2268L62.4475 4.72843C60.4508 3.58533 58.0444 2.96182 55.7917 2.96182Z" fill="#FEC882"/>
<path fill-rule="evenodd" clip-rule="evenodd" d="M63.9833 14.8086L93.7294 31.7473C98.2349 34.3453 101.153 39.2814 101.153 44.5813V78.1989C101.153 83.4988 98.2861 88.4349 93.6271 91.0329L63.9833 107.972C61.577 109.323 59.0683 109.946 56.4572 109.946C53.8461 109.946 51.1838 109.323 48.931 107.972L19.3385 91.1368C14.6795 88.4349 11.8124 83.6027 11.8124 78.3028V44.5813C11.8124 39.2814 14.6795 34.3453 19.3385 31.7473L48.931 14.8086C53.5901 12.2106 59.3243 12.2106 63.9833 14.8086ZM65.98 84.2262H77.3972V37.5668H65.98V66.5081L46.9343 37.5668H35.5171V84.2262H46.9343V55.5966L65.98 84.2262Z" fill="#FEC882"/>
<path d="M161.209 55.077H154.297L142.726 37.7226V55.077H135.815V26.8112H142.726L154.297 44.3214V26.8112H161.209V55.077Z" fill="white"/>
<path d="M174.572 32.4748C176.312 32.4748 177.797 32.8385 179.026 33.6179C180.255 34.3973 181.176 35.4365 181.791 36.7874V32.7346H188.651V55.0771H181.791V51.0243C181.176 52.3752 180.306 53.4144 179.026 54.1938C177.797 54.9732 176.312 55.3369 174.572 55.3369C172.729 55.3369 171.039 54.8692 169.554 53.9859C168.121 53.0507 166.943 51.6997 166.073 49.9851C165.254 48.2704 164.844 46.244 164.844 43.9058C164.844 41.5677 165.254 39.5413 166.073 37.8266C166.943 36.1119 168.07 34.761 169.554 33.8777C171.039 32.9424 172.677 32.4748 174.572 32.4748ZM176.773 38.5021C175.288 38.5021 174.111 38.9697 173.189 39.9569C172.319 40.8922 171.858 42.2431 171.858 43.9578C171.858 45.6725 172.319 47.0234 173.189 47.9587C174.111 48.8939 175.288 49.4135 176.773 49.4135C178.207 49.4135 179.436 48.9459 180.306 47.9587C181.227 46.9714 181.739 45.6725 181.739 44.0098C181.739 42.3471 181.279 40.9961 180.306 40.0608C179.436 38.9697 178.258 38.5021 176.773 38.5021Z" fill="white"/>
<path d="M206.161 49.2057V55.0771H203.038C200.376 55.0771 198.328 54.4536 196.843 53.1546C195.409 51.8556 194.641 49.7253 194.641 46.7117V38.554H191.621V32.7866H194.641V27.2789H201.553V32.7346H206.059V38.5021H201.553V46.8156C201.553 47.6989 201.707 48.3224 202.065 48.6342C202.423 48.9979 203.038 49.1538 203.908 49.1538H206.161V49.2057Z" fill="white"/>
<path d="M209.386 26.4995C209.386 25.4603 209.745 24.6289 210.513 23.9535C211.281 23.278 212.253 22.9143 213.482 22.9143C214.711 22.9143 215.735 23.278 216.452 23.9535C217.22 24.6289 217.578 25.4603 217.578 26.4995C217.578 27.5387 217.22 28.37 216.452 29.0455C215.684 29.7209 214.711 30.0327 213.482 30.0327C212.253 30.0327 211.229 29.7209 210.513 29.0455C209.796 28.37 209.386 27.4867 209.386 26.4995ZM216.964 32.7865V55.129H210.052V32.7865H216.964Z" fill="white"/>
<path d="M232.272 32.4748C234.525 32.4748 236.521 32.9424 238.262 33.8777C240.054 34.761 241.436 36.1119 242.409 37.8266C243.433 39.5413 243.945 41.5677 243.945 43.9058C243.945 46.244 243.433 48.2704 242.409 49.9851C241.436 51.6997 240.003 53.0507 238.262 53.9859C236.521 54.8692 234.525 55.3369 232.272 55.3369C230.019 55.3369 228.022 54.8692 226.23 53.9859C224.439 53.0507 223.056 51.6997 222.032 49.9851C221.059 48.2704 220.547 46.244 220.547 43.9058C220.547 41.5677 221.059 39.5413 222.032 37.8266C223.056 36.1119 224.439 34.761 226.23 33.8777C228.022 32.9424 230.07 32.4748 232.272 32.4748ZM232.272 38.3981C230.941 38.3981 229.814 38.8658 228.893 39.853C228.022 40.7883 227.562 42.1392 227.562 43.9578C227.562 45.7764 228.022 47.1273 228.893 48.0626C229.814 48.9978 230.941 49.4655 232.272 49.4655C233.603 49.4655 234.678 48.9978 235.6 48.0626C236.47 47.1273 236.931 45.7764 236.931 43.9578C236.931 42.1392 236.47 40.7883 235.6 39.853C234.729 38.9177 233.603 38.3981 232.272 38.3981Z" fill="white"/>
<path d="M261.864 32.5267C264.476 32.5267 266.524 33.3581 268.008 35.0727C269.544 36.7874 270.312 39.1255 270.312 42.1392V55.077H263.4V42.9186C263.4 41.4117 262.991 40.2686 262.172 39.4373C261.404 38.6059 260.329 38.1383 258.997 38.1383C257.615 38.1383 256.489 38.554 255.618 39.4373C254.799 40.3206 254.39 41.5676 254.39 43.1784V55.0251H247.478V32.6826H254.39V36.7874C255.055 35.4364 255.977 34.3972 257.257 33.6178C258.639 32.9424 260.124 32.5267 261.864 32.5267Z" fill="white"/>
<path d="M283.47 32.4748C285.211 32.4748 286.696 32.8385 287.924 33.6179C289.153 34.3973 290.075 35.4365 290.689 36.7874V32.7346H297.55V55.0771H290.689V51.0243C290.075 52.3752 289.204 53.4144 287.924 54.1938C286.696 54.9732 285.211 55.3369 283.47 55.3369C281.627 55.3369 279.937 54.8692 278.453 53.9859C277.019 53.0507 275.842 51.6997 274.971 49.9851C274.152 48.2704 273.742 46.244 273.742 43.9058C273.742 41.5677 274.152 39.5413 274.971 37.8266C275.842 36.1119 276.968 34.761 278.453 33.8777C279.937 32.9424 281.576 32.4748 283.47 32.4748ZM285.672 38.5021C284.187 38.5021 283.009 38.9697 282.088 39.9569C281.217 40.8922 280.757 42.2431 280.757 43.9578C280.757 45.6725 281.217 47.0234 282.088 47.9587C283.009 48.8939 284.187 49.4135 285.672 49.4135C287.105 49.4135 288.334 48.9459 289.255 47.9587C290.177 46.9714 290.689 45.6725 290.689 44.0098C290.689 42.3471 290.228 40.9961 289.255 40.0608C288.334 38.9697 287.105 38.5021 285.672 38.5021Z" fill="white"/>
<path d="M309.172 25.5122V55.129H302.26V25.5122H309.172Z" fill="white"/>
<path d="M146.157 72.7952C149.024 72.7952 151.43 73.5746 153.324 75.0814C155.219 76.5882 156.396 78.6146 156.857 81.2126H151.942C151.686 79.8097 151.02 78.7705 149.945 77.9911C148.921 77.2117 147.641 76.796 146.054 76.796C144.262 76.796 142.777 77.4195 141.6 78.6666C140.422 79.9136 139.808 81.7322 139.808 84.1223C139.808 86.5124 140.422 88.331 141.6 89.578C142.777 90.8251 144.262 91.4486 146.054 91.4486C147.641 91.4486 148.921 91.0329 149.945 90.2535C151.02 89.4741 151.635 88.383 151.942 86.9801H156.857C156.396 89.578 155.219 91.6044 153.324 93.1632C151.43 94.67 149.075 95.4494 146.157 95.4494C144.006 95.4494 142.112 94.9818 140.422 94.0985C138.784 93.2152 137.504 91.8642 136.531 90.2015C135.61 88.4869 135.098 86.4605 135.098 84.1743C135.098 81.888 135.559 79.8616 136.531 78.1989C137.453 76.4843 138.784 75.1853 140.422 74.302C142.061 73.2108 143.955 72.7952 146.157 72.7952Z" fill="white"/>
<path d="M170.169 72.7952C172.165 72.7952 173.906 73.2628 175.34 74.25C176.773 75.2373 177.797 76.5362 178.36 78.147V73.003H182.968V95.0338H178.36V89.8898C177.746 91.5005 176.773 92.7995 175.34 93.7867C173.906 94.774 172.165 95.2416 170.169 95.2416C168.223 95.2416 166.482 94.774 164.946 93.8907C163.462 93.0073 162.233 91.6564 161.414 89.9937C160.543 88.279 160.134 86.2526 160.134 83.9664C160.134 81.6802 160.543 79.6538 161.414 77.9911C162.284 76.2764 163.462 74.9775 164.946 74.0941C166.534 73.2108 168.274 72.7952 170.169 72.7952ZM171.602 76.796C169.554 76.796 167.916 77.4715 166.687 78.7705C165.458 80.0695 164.844 81.8361 164.844 84.0703C164.844 86.3046 165.458 88.1232 166.687 89.4222C167.916 90.7211 169.554 91.3447 171.602 91.3447C172.882 91.3447 174.06 91.0329 175.084 90.4613C176.108 89.8378 176.927 89.0065 177.49 87.9153C178.104 86.8242 178.36 85.5252 178.36 84.0703C178.36 82.6155 178.053 81.3685 177.49 80.2773C176.876 79.1342 176.108 78.3029 175.084 77.7313C174.06 77.1078 172.882 76.796 171.602 76.796Z" fill="white"/>
<path d="M195.87 72.7952C198.481 72.7952 200.58 73.4706 202.116 74.7696C203.703 76.0686 204.676 77.8352 205.034 80.0695H200.683C200.478 78.8744 199.966 77.8872 199.095 77.2117C198.276 76.4843 197.15 76.0686 195.716 76.0686C194.539 76.0686 193.668 76.3284 193.003 76.9C192.388 77.4195 192.081 78.147 192.081 79.0822C192.081 79.7577 192.286 80.3293 192.747 80.7449C193.208 81.1606 193.771 81.5243 194.436 81.7322C195.153 81.992 196.126 82.2518 197.406 82.5116C199.095 82.8753 200.427 83.2909 201.451 83.6547C202.526 84.0703 203.396 84.6939 204.113 85.5772C204.881 86.4085 205.239 87.6036 205.239 89.1104C205.239 90.929 204.522 92.4358 203.089 93.5789C201.707 94.722 199.812 95.2936 197.406 95.2936C194.641 95.2936 192.388 94.67 190.648 93.3711C188.958 92.0721 187.934 90.3055 187.576 88.0193H192.081C192.235 89.2143 192.747 90.2015 193.72 90.929C194.641 91.6564 195.921 92.0721 197.457 92.0721C198.583 92.0721 199.403 91.8123 200.068 91.2407C200.734 90.6692 201.041 89.9417 201.041 89.0584C201.041 88.2791 200.785 87.6555 200.324 87.2399C199.863 86.7722 199.249 86.4605 198.481 86.2007C197.764 85.9409 196.74 85.6811 195.512 85.4213C193.873 85.0576 192.593 84.6939 191.569 84.2782C190.597 83.9145 189.726 83.2909 188.958 82.4596C188.241 81.6282 187.883 80.4851 187.883 79.0303C187.883 77.1598 188.6 75.6529 189.982 74.5098C191.365 73.3667 193.361 72.7952 195.87 72.7952Z" fill="white"/>
<path d="M209.233 66.664C209.233 65.8846 209.489 65.2611 210.052 64.7415C210.615 64.2219 211.281 63.9621 212.202 63.9621C213.124 63.9621 213.789 64.2219 214.353 64.7415C214.916 65.2611 215.223 65.8846 215.223 66.664C215.223 67.4434 214.916 68.0669 214.353 68.5345C213.789 69.0022 213.124 69.2619 212.202 69.2619C211.281 69.2619 210.615 69.0022 210.052 68.5345C209.54 68.0669 209.233 67.4434 209.233 66.664ZM214.506 73.055V95.0857H209.898V73.055H214.506Z" fill="white"/>
<path d="M232.528 72.6913C235.139 72.6913 237.187 73.5226 238.774 75.1853C240.361 76.848 241.129 79.1862 241.129 82.2518V95.0857H236.521V82.7194C236.521 80.7449 236.009 79.2381 234.985 78.147C233.961 77.0558 232.579 76.4843 230.787 76.4843C228.944 76.4843 227.511 77.0558 226.384 78.2509C225.258 79.394 224.746 81.1087 224.746 83.3429V95.0857H220.138V73.055H224.746V77.8872C225.36 76.2245 226.333 74.9775 227.715 74.0422C229.098 73.1589 230.685 72.6913 232.528 72.6913Z" fill="white"/>
<path d="M256.693 72.7952C258.844 72.7952 260.789 73.2628 262.53 74.1461C264.271 75.0294 265.602 76.3804 266.575 78.0431C267.547 79.7577 268.008 81.7322 268.008 84.0184C268.008 86.3565 267.547 88.331 266.575 90.0457C265.602 91.7603 264.271 93.0593 262.53 93.9426C260.789 94.8259 258.844 95.2936 256.693 95.2936C254.543 95.2936 252.598 94.8259 250.857 93.9426C249.167 93.0593 247.836 91.7084 246.812 90.0457C245.839 88.331 245.379 86.3046 245.379 84.0184C245.379 81.7322 245.839 79.7058 246.812 78.0431C247.785 76.3284 249.167 75.0294 250.857 74.1461C252.598 73.2108 254.543 72.7952 256.693 72.7952ZM256.693 76.7441C255.516 76.7441 254.441 77.0039 253.417 77.5235C252.444 78.0431 251.625 78.8744 251.01 80.0175C250.396 81.1087 250.14 82.4596 250.14 84.0703C250.14 85.6811 250.447 87.032 251.01 88.1751C251.625 89.2663 252.444 90.0976 253.417 90.6172C254.39 91.1368 255.516 91.3966 256.693 91.3966C257.871 91.3966 258.946 91.1368 259.97 90.6172C260.943 90.0976 261.762 89.2663 262.376 88.1751C262.991 87.084 263.298 85.733 263.298 84.0703C263.298 82.4596 262.991 81.1087 262.376 80.0175C261.762 78.8744 260.994 78.095 259.97 77.5235C258.946 77.0039 257.871 76.7441 256.693 76.7441Z" fill="white"/>
</svg>
