<svg width="111" height="111" viewBox="0 0 111 111" fill="none" xmlns="http://www.w3.org/2000/svg">
<circle cx="55.3248" cy="55.6417" r="55.3248" fill="#FF4016"/>
<path d="M55.3251 74.0355V78.6339M55.3251 32.6497V37.2481M66.8212 74.0355V78.6339M66.8212 32.6497V37.2481M32.333 55.6418H36.9314M32.333 67.1378H36.9314M32.333 44.1457H36.9314M73.7188 55.6418H78.3172M73.7188 67.1378H78.3172M73.7188 44.1457H78.3172M43.8291 74.0355V78.6339M43.8291 32.6497V37.2481M41.5299 37.2481H69.1204C71.66 37.2481 73.7188 39.3069 73.7188 41.8465V69.437C73.7188 71.9767 71.66 74.0355 69.1204 74.0355H41.5299C38.9902 74.0355 36.9314 71.9767 36.9314 69.437V41.8465C36.9314 39.3069 38.9902 37.2481 41.5299 37.2481ZM48.4275 46.4449H62.2228C63.4926 46.4449 64.522 47.4743 64.522 48.7441V62.5394C64.522 63.8092 63.4926 64.8386 62.2228 64.8386H48.4275C47.1577 64.8386 46.1283 63.8092 46.1283 62.5394V48.7441C46.1283 47.4743 47.1577 46.4449 48.4275 46.4449Z" stroke="black" stroke-width="2.15551" stroke-linecap="round" stroke-linejoin="round"/>
</svg>
