<svg width="111" height="112" viewBox="0 0 111 112" fill="none" xmlns="http://www.w3.org/2000/svg">
<circle cx="55.3248" cy="55.9586" r="55.3248" fill="#FF4016"/>
<path d="M63.8683 49.0866C62.9584 48.1947 61.7351 47.6952 60.4611 47.6952C59.187 47.6952 57.9637 48.1947 57.0539 49.0866L56.4698 49.8653L55.7883 49.2813C55.342 48.7981 54.7994 48.4138 54.1956 48.1531C53.5918 47.8923 52.94 47.7608 52.2823 47.7672C51.6246 47.7735 50.9755 47.9174 50.3768 48.1898C49.7781 48.4621 49.243 48.8568 48.806 49.3484C48.369 49.84 48.0398 50.4176 47.8396 51.0441C47.6393 51.6706 47.5725 52.3321 47.6433 52.986C47.7141 53.64 47.9211 54.2718 48.2509 54.8409C48.5806 55.41 49.0259 55.9037 49.558 56.2904L56.5671 63.1048L63.5762 56.2904C65.9126 53.954 65.7179 51.0335 63.9656 49.0866M48.4872 70.1139C52.2031 72.0201 56.4777 72.5364 60.5407 71.5698C64.6036 70.6032 68.1878 68.2172 70.6472 64.8418C73.1066 61.4665 74.2796 57.3237 73.9548 53.1599C73.6299 48.9962 71.8287 45.0855 68.8755 42.1323C65.9224 39.1792 62.0116 37.3779 57.8479 37.0531C53.6842 36.7283 49.5414 37.9013 46.166 40.3607C42.7906 42.8201 40.4047 46.4042 39.438 50.4672C38.4714 54.5301 38.9878 58.8047 40.894 62.5207L37 74.0079L48.4872 70.1139Z" stroke="black" stroke-width="2.16" stroke-linecap="round" stroke-linejoin="round"/>
</svg>
