<svg width="111" height="111" viewBox="0 0 111 111" fill="none" xmlns="http://www.w3.org/2000/svg">
<circle cx="55.3248" cy="55.6417" r="55.3248" fill="#FF4016"/>
<path d="M55 63V73M63 59V73M71 51V73M75 37L57.708 54.292C57.6151 54.3851 57.5048 54.459 57.3833 54.5094C57.2618 54.5598 57.1315 54.5858 57 54.5858C56.8685 54.5858 56.7382 54.5598 56.6167 54.5094C56.4952 54.459 56.3849 54.3851 56.292 54.292L49.708 47.708C49.5205 47.5205 49.2662 47.4152 49.001 47.4152C48.7358 47.4152 48.4815 47.5205 48.294 47.708L35 61M39 67V73M47 59V73" stroke="black" stroke-width="2.16" stroke-linecap="round" stroke-linejoin="round"/>
</svg>
