<svg width="111" height="111" viewBox="0 0 111 111" fill="none" xmlns="http://www.w3.org/2000/svg">
<circle cx="55.3248" cy="55.3248" r="55.3248" fill="#FF4016"/>
<path d="M53.5 67.0008L56.5 70.0008C56.7955 70.2962 57.1463 70.5306 57.5323 70.6905C57.9184 70.8504 58.3321 70.9327 58.75 70.9327C59.1679 70.9327 59.5816 70.8504 59.9677 70.6905C60.3537 70.5306 60.7045 70.2962 61 70.0008C61.2955 69.7053 61.5299 69.3545 61.6898 68.9684C61.8497 68.5824 61.932 68.1686 61.932 67.7508C61.932 67.3329 61.8497 66.9191 61.6898 66.5331C61.5299 66.147 61.2955 65.7962 61 65.5008M58 62.5008L61.75 66.2508C62.3467 66.8475 63.1561 67.1827 64 67.1827C64.8439 67.1827 65.6533 66.8475 66.25 66.2508C66.8467 65.654 67.182 64.8447 67.182 64.0008C67.182 63.1568 66.8467 62.3475 66.25 61.7508L60.43 55.9308C59.5862 55.0881 58.4425 54.6147 57.25 54.6147C56.0575 54.6147 54.9138 55.0881 54.07 55.9308L52.75 57.2508C52.1533 57.8475 51.3439 58.1827 50.5 58.1827C49.6561 58.1827 48.8467 57.8475 48.25 57.2508C47.6533 56.654 47.318 55.8447 47.318 55.0008C47.318 54.1568 47.6533 53.3475 48.25 52.7508L52.465 48.5358C53.8334 47.171 55.6178 46.3016 57.536 46.0652C59.4541 45.8288 61.3962 46.239 63.055 47.2308L63.76 47.6508C64.3987 48.0362 65.1581 48.1699 65.89 48.0258L68.5 47.5008M68.5 46.0008L70 62.5008H67M41.5 46.0008L40 62.5008L49.75 72.2508C50.3467 72.8475 51.1561 73.1827 52 73.1827C52.8439 73.1827 53.6533 72.8475 54.25 72.2508C54.8467 71.654 55.182 70.8447 55.182 70.0008C55.182 69.1568 54.8467 68.3475 54.25 67.7508M41.5 47.5008H53.5" stroke="black" stroke-width="2.3" stroke-linecap="round" stroke-linejoin="round"/>
</svg>
