<svg width="111" height="111" viewBox="0 0 111 111" fill="none" xmlns="http://www.w3.org/2000/svg">
<circle cx="55.3248" cy="55.6417" r="55.3248" fill="#FF4016"/>
<path d="M58.5494 45.9257C58.212 46.2699 58.023 46.7328 58.023 47.2148C58.023 47.6969 58.212 48.1597 58.5494 48.504L61.496 51.4506C61.8403 51.788 62.3031 51.977 62.7852 51.977C63.2672 51.977 63.7301 51.788 64.0743 51.4506L71.0172 44.5076C71.9433 46.554 72.2237 48.834 71.821 51.0438C71.4184 53.2536 70.3519 55.2882 68.7636 56.8765C67.1753 58.4648 65.1407 59.5313 62.9309 59.9339C60.7211 60.3366 58.4411 60.0562 56.3947 59.1301L43.6691 71.8558C42.9365 72.5884 41.9428 73 40.9067 73C39.8706 73 38.8769 72.5884 38.1442 71.8558C37.4116 71.1231 37 70.1294 37 69.0933C37 68.0572 37.4116 67.0635 38.1442 66.3309L50.8699 53.6053C49.9438 51.5589 49.6634 49.2789 50.0661 47.0691C50.4687 44.8593 51.5352 42.8247 53.1235 41.2364C54.7118 39.6481 56.7464 38.5816 58.9562 38.179C61.166 37.7763 63.446 38.0567 65.4924 38.9828L58.5494 45.9257Z" stroke="black" stroke-width="2.3" stroke-linecap="round" stroke-linejoin="round"/>
</svg>
