<svg width="111" height="111" viewBox="0 0 111 111" fill="none" xmlns="http://www.w3.org/2000/svg">
<circle cx="55.3248" cy="55.3248" r="55.3248" fill="#FF4016"/>
<path d="M60.999 40.1834C57.4344 38.7986 53.5019 38.6817 49.8612 39.8525C46.2206 41.0232 43.0933 43.4104 41.004 46.6134C38.9148 49.8165 37.9905 53.6407 38.3865 57.4444C38.7824 61.248 40.4743 64.7999 43.1785 67.504C45.8826 70.2082 49.4344 71.9001 53.2381 72.296C57.0418 72.6919 60.866 71.7677 64.069 69.6784C67.2721 67.5891 69.6593 64.4619 70.83 60.8213C72.0008 57.1806 71.8839 53.2481 70.499 49.6834M57.3324 53.3501L66.6657 44.0168M58.3324 55.6834C58.3324 57.5244 56.84 59.0168 54.999 59.0168C53.1581 59.0168 51.6657 57.5244 51.6657 55.6834C51.6657 53.8425 53.1581 52.3501 54.999 52.3501C56.84 52.3501 58.3324 53.8425 58.3324 55.6834Z" stroke="black" stroke-width="2.3" stroke-linecap="round" stroke-linejoin="round"/>
</svg>
