<svg width="111" height="112" viewBox="0 0 111 112" fill="none" xmlns="http://www.w3.org/2000/svg">
<circle cx="55.3248" cy="56.0079" r="55.3248" fill="#FF4016"/>
<path d="M51.4 73.6831V46.6831C51.4 46.2057 51.2104 45.7479 50.8728 45.4103C50.5352 45.0727 50.0774 44.8831 49.6 44.8831H40.6C39.6452 44.8831 38.7295 45.2624 38.0544 45.9375C37.3793 46.6127 37 47.5283 37 48.4831V70.0831C37 71.0379 37.3793 71.9536 38.0544 72.6287C38.7295 73.3038 39.6452 73.6831 40.6 73.6831H62.2C63.1548 73.6831 64.0705 73.3038 64.7456 72.6287C65.4207 71.9536 65.8 71.0379 65.8 70.0831V61.0831C65.8 60.6057 65.6104 60.1479 65.2728 59.8103C64.9352 59.4727 64.4774 59.2831 64 59.2831H37M60.4 37.6831H71.2C72.1941 37.6831 73 38.489 73 39.4831V50.2831C73 51.2772 72.1941 52.0831 71.2 52.0831H60.4C59.4059 52.0831 58.6 51.2772 58.6 50.2831V39.4831C58.6 38.489 59.4059 37.6831 60.4 37.6831Z" stroke="black" stroke-width="2.16" stroke-linecap="round" stroke-linejoin="round"/>
</svg>
