<svg width="111" height="111" viewBox="0 0 111 111" fill="none" xmlns="http://www.w3.org/2000/svg">
<circle cx="55.3248" cy="55.6417" r="55.3248" fill="#FF4016"/>
<path d="M39.6992 54.3H44.7992C45.701 54.3 46.5658 54.6582 47.2034 55.2958C47.841 55.9335 48.1992 56.7983 48.1992 57.7V62.8C48.1992 63.7017 47.841 64.5665 47.2034 65.2042C46.5658 65.8418 45.701 66.2 44.7992 66.2H43.0992C42.1975 66.2 41.3327 65.8418 40.6951 65.2042C40.0574 64.5665 39.6992 63.7017 39.6992 62.8V54.3ZM39.6992 54.3C39.6992 52.2908 40.095 50.3012 40.8639 48.4449C41.6328 46.5887 42.7597 44.902 44.1805 43.4813C45.6012 42.0605 47.2879 40.9335 49.1442 40.1646C51.0004 39.3957 52.99 39 54.9992 39C57.0084 39 58.998 39.3957 60.8543 40.1646C62.7106 40.9335 64.3972 42.0605 65.818 43.4813C67.2387 44.902 68.3657 46.5887 69.1346 48.4449C69.9035 50.3012 70.2992 52.2908 70.2992 54.3M70.2992 54.3V62.8M70.2992 54.3H65.1992C64.2975 54.3 63.4327 54.6582 62.7951 55.2958C62.1574 55.9335 61.7992 56.7983 61.7992 57.7V62.8C61.7992 63.7017 62.1574 64.5665 62.7951 65.2042C63.4327 65.8418 64.2975 66.2 65.1992 66.2H66.8992C67.801 66.2 68.6658 65.8418 69.3034 65.2042C69.941 64.5665 70.2992 63.7017 70.2992 62.8M70.2992 62.8V66.2C70.2992 68.0035 69.5828 69.7331 68.3075 71.0083C67.0323 72.2836 65.3027 73 63.4992 73H54.9992" stroke="black" stroke-width="2.3" stroke-linecap="round" stroke-linejoin="round"/>
</svg>
