<svg width="111" height="111" viewBox="0 0 111 111" fill="none" xmlns="http://www.w3.org/2000/svg">
<circle cx="55.3248" cy="55.3248" r="55.3248" fill="#FF4016"/>
<path d="M56.0013 50.0833V72.25M56.0013 50.0833C56.0013 48.4036 55.334 46.7927 54.1463 45.605C52.9586 44.4173 51.3477 43.75 49.668 43.75H41.7513C41.3314 43.75 40.9286 43.9168 40.6317 44.2137C40.3348 44.5107 40.168 44.9134 40.168 45.3333V65.9167C40.168 66.3366 40.3348 66.7393 40.6317 67.0363C40.9286 67.3332 41.3314 67.5 41.7513 67.5H51.2513C52.5111 67.5 53.7193 68.0004 54.6101 68.8912C55.5009 69.782 56.0013 70.9902 56.0013 72.25M56.0013 50.0833C56.0013 48.4036 56.6686 46.7927 57.8563 45.605C59.044 44.4173 60.6549 43.75 62.3346 43.75H70.2513C70.6712 43.75 71.074 43.9168 71.3709 44.2137C71.6678 44.5107 71.8346 44.9134 71.8346 45.3333V65.9167C71.8346 66.3366 71.6678 66.7393 71.3709 67.0363C71.074 67.3332 70.6712 67.5 70.2513 67.5H60.7513C59.4915 67.5 58.2833 68.0004 57.3925 68.8912C56.5017 69.782 56.0013 70.9902 56.0013 72.25M62.3346 58H65.5013M62.3346 51.6667H65.5013M46.5013 58H49.668M46.5013 51.6667H49.668" stroke="black" stroke-width="2.57059" stroke-linecap="round" stroke-linejoin="round"/>
</svg>
