<svg width="111" height="111" viewBox="0 0 111 111" fill="none" xmlns="http://www.w3.org/2000/svg">
<circle cx="55.3248" cy="55.6417" r="55.3248" fill="#FF4016"/>
<path d="M45.1834 42.8234C45.1491 42.0567 45.2685 41.2909 45.5346 40.5711C45.8006 39.8512 46.208 39.1918 46.7326 38.6317C47.2572 38.0715 47.8885 37.622 48.5894 37.3094C49.2904 36.9968 50.0467 36.8275 50.814 36.8116C51.5813 36.7956 52.344 36.9332 53.0573 37.2163C53.7707 37.4994 54.4202 37.9222 54.9677 38.46C55.5152 38.9978 55.9496 39.6397 56.2454 40.3478C56.5413 41.056 56.6925 41.8161 56.6902 42.5836V67.5276M45.1834 42.8234C44.0555 43.1134 43.0084 43.6563 42.1214 44.4108C41.2345 45.1654 40.5308 46.112 40.0638 47.1787C39.5968 48.2455 39.3786 49.4046 39.4259 50.5682C39.4731 51.7318 39.7846 52.8693 40.3365 53.8947M45.1834 42.8234C45.2213 43.7516 45.4833 44.6568 45.947 45.4617M40.3365 53.8947C39.366 54.6832 38.6028 55.6969 38.1133 56.8476C37.6239 57.9983 37.423 59.2512 37.5282 60.4972C37.6333 61.7432 38.0413 62.9447 38.7167 63.9971C39.3921 65.0495 40.3144 65.9209 41.4034 66.5356M40.3365 53.8947C40.6876 53.6088 41.0632 53.3565 41.459 53.1368M41.4034 66.5356C41.2689 67.576 41.3492 68.633 41.6392 69.6412C41.9292 70.6494 42.4228 71.5874 43.0896 72.3973C43.7563 73.2073 44.582 73.872 45.5157 74.3503C46.4494 74.8286 47.4713 75.1104 48.5181 75.1784C49.565 75.2463 50.6147 75.0989 51.6024 74.7453C52.5901 74.3916 53.4948 73.8392 54.2606 73.1223C55.0264 72.4053 55.6372 71.5389 56.055 70.5766C56.4729 69.6144 56.6891 68.5767 56.6902 67.5276M41.4034 66.5356C42.5552 67.1852 43.8552 67.5282 45.1776 67.5276M56.6902 67.5276H68.2029C69.2206 67.5276 70.1967 67.9319 70.9164 68.6516C71.6361 69.3713 72.0404 70.3474 72.0404 71.3651V73.2839M50.9339 57.9337C52.5448 57.367 53.9515 56.3354 54.9761 54.9693C56.0008 53.6031 56.5973 51.9638 56.6902 50.2587M56.6902 57.9337H64.3653M56.6902 48.3399H72.0404M64.3653 48.3399V42.5836C64.3653 41.5658 64.7696 40.5897 65.4893 39.87C66.209 39.1503 67.1851 38.746 68.2029 38.746M65.3247 57.9337C65.3247 58.4636 64.8952 58.8931 64.3653 58.8931C63.8355 58.8931 63.4059 58.4636 63.4059 57.9337C63.4059 57.4039 63.8355 56.9744 64.3653 56.9744C64.8952 56.9744 65.3247 57.4039 65.3247 57.9337ZM69.1622 38.746C69.1622 39.2759 68.7327 39.7054 68.2029 39.7054C67.673 39.7054 67.2435 39.2759 67.2435 38.746C67.2435 38.2162 67.673 37.7866 68.2029 37.7866C68.7327 37.7866 69.1622 38.2162 69.1622 38.746ZM72.9998 73.2839C72.9998 73.8138 72.5702 74.2433 72.0404 74.2433C71.5105 74.2433 71.081 73.8138 71.081 73.2839C71.081 72.7541 71.5105 72.3245 72.0404 72.3245C72.5702 72.3245 72.9998 72.7541 72.9998 73.2839ZM72.9998 48.3399C72.9998 48.8697 72.5702 49.2993 72.0404 49.2993C71.5105 49.2993 71.081 48.8697 71.081 48.3399C71.081 47.81 71.5105 47.3805 72.0404 47.3805C72.5702 47.3805 72.9998 47.81 72.9998 48.3399Z" stroke="black" stroke-width="2.30276" stroke-linecap="round" stroke-linejoin="round"/>
</svg>
