<svg width="111" height="111" viewBox="0 0 111 111" fill="none" xmlns="http://www.w3.org/2000/svg">
<circle cx="55.3248" cy="55.6417" r="55.3248" fill="#FF4016"/>
<path d="M34.9912 56.0015C34.9903 56.384 35.0991 56.7588 35.3047 57.0814C35.5103 57.404 35.8041 57.6609 36.1513 57.8216L53.3519 65.6419C53.8704 65.8766 54.4329 65.9981 55.002 65.9981C55.5711 65.9981 56.1336 65.8766 56.6521 65.6419L73.8127 57.8416C74.1668 57.6824 74.4668 57.4237 74.6764 57.097C74.8859 56.7703 74.9958 56.3896 74.9928 56.0015M34.9912 66.0019C34.9903 66.3844 35.0991 66.7592 35.3047 67.0818C35.5103 67.4044 35.8041 67.6613 36.1513 67.822L53.3519 75.6423C53.8704 75.877 54.4329 75.9984 55.002 75.9984C55.5711 75.9984 56.1336 75.877 56.6521 75.6423L73.8127 67.842C74.1668 67.6828 74.4668 67.4241 74.6764 67.0974C74.8859 66.7707 74.9958 66.39 74.9928 66.0019M56.6521 36.3607C56.1309 36.123 55.5648 36 54.992 36C54.4192 36 53.8531 36.123 53.3319 36.3607L36.1913 44.161C35.8363 44.3175 35.5346 44.5738 35.3228 44.8988C35.1109 45.2237 34.9981 45.6032 34.9981 45.9911C34.9981 46.379 35.1109 46.7585 35.3228 47.0834C35.5346 47.4084 35.8363 47.6647 36.1913 47.8212L53.3519 55.6415C53.8731 55.8792 54.4392 56.0022 55.012 56.0022C55.5848 56.0022 56.1509 55.8792 56.6721 55.6415L73.8327 47.8412C74.1876 47.6847 74.4894 47.4284 74.7012 47.1034C74.9131 46.7785 75.0259 46.399 75.0259 46.0111C75.0259 45.6232 74.9131 45.2437 74.7012 44.9188C74.4894 44.5938 74.1876 44.3375 73.8327 44.181L56.6521 36.3607Z" stroke="black" stroke-width="2.16" stroke-linecap="round" stroke-linejoin="round"/>
</svg>
