<svg width="111" height="112" viewBox="0 0 111 112" fill="none" xmlns="http://www.w3.org/2000/svg">
<circle cx="55.3248" cy="55.9586" r="55.3248" fill="#FF4016"/>
<path d="M45.9639 38H49.5679L54.3612 60.3809C54.537 61.2006 54.9931 61.9333 55.6509 62.453C56.3087 62.9726 57.1271 63.2467 57.9652 63.2281H75.5888C76.4091 63.2267 77.2043 62.9457 77.8432 62.4313C78.4821 61.9169 78.9264 61.2 79.1027 60.3989L82.076 47.01H51.496M58.4878 72.148C58.4878 73.1432 57.681 73.95 56.6858 73.95C55.6906 73.95 54.8838 73.1432 54.8838 72.148C54.8838 71.1528 55.6906 70.346 56.6858 70.346C57.681 70.346 58.4878 71.1528 58.4878 72.148ZM78.3099 72.148C78.3099 73.1432 77.5031 73.95 76.5079 73.95C75.5126 73.95 74.7058 73.1432 74.7058 72.148C74.7058 71.1528 75.5126 70.346 76.5079 70.346C77.5031 70.346 78.3099 71.1528 78.3099 72.148Z" stroke="black" stroke-width="2.16" stroke-linecap="round" stroke-linejoin="round"/>
<path d="M36 64L41 55L36 46M29 64L34 55L29 46" stroke="black" stroke-width="2.16" stroke-linecap="round" stroke-linejoin="round"/>
</svg>
