<svg width="111" height="111" viewBox="0 0 111 111" fill="none" xmlns="http://www.w3.org/2000/svg">
<circle cx="55.3248" cy="55.6417" r="55.3248" fill="#FF4016"/>
<path d="M50.4283 62.8571C50.4283 67.9066 46.3349 72 41.2854 72C36.236 72 32.1426 67.9066 32.1426 62.8571C32.1426 57.8077 36.236 53.7143 41.2854 53.7143C46.3349 53.7143 50.4283 57.8077 50.4283 62.8571ZM50.4283 62.8571C50.4283 61.6447 50.9099 60.482 51.7672 59.6247C52.6245 58.7673 53.7873 58.2857 54.9997 58.2857C56.2121 58.2857 57.3749 58.7673 58.2322 59.6247C59.0895 60.482 59.5712 61.6447 59.5712 62.8571M59.5712 62.8571C59.5712 67.9066 63.6645 72 68.714 72C73.7635 72 77.8569 67.9066 77.8569 62.8571C77.8569 57.8077 73.7635 53.7143 68.714 53.7143C63.6645 53.7143 59.5712 57.8077 59.5712 62.8571ZM33.2854 58.2857L38.9997 44.5714C40.5997 41.6 42.1997 40 45.8569 40M76.714 58.2857L70.9997 44.5714C69.3997 41.6 67.5711 40 64.1426 40" stroke="black" stroke-width="2.16" stroke-linecap="round" stroke-linejoin="round"/>
</svg>
