<svg width="111" height="111" viewBox="0 0 111 111" fill="none" xmlns="http://www.w3.org/2000/svg">
<circle cx="55.3248" cy="55.6417" r="55.3248" fill="#FF4016"/>
<path d="M70.8346 56.0003H66.908C66.216 55.9988 65.5426 56.2241 64.9907 56.6415C64.4389 57.059 64.039 57.6457 63.8521 58.312L60.1313 71.5487C60.1073 71.6309 60.0573 71.7031 59.9888 71.7545C59.9203 71.8059 59.8369 71.8337 59.7513 71.8337C59.6657 71.8337 59.5823 71.8059 59.5138 71.7545C59.4453 71.7031 59.3953 71.6309 59.3713 71.5487L50.6313 40.452C50.6073 40.3698 50.5573 40.2975 50.4888 40.2462C50.4203 40.1948 50.3369 40.167 50.2513 40.167C50.1657 40.167 50.0823 40.1948 50.0138 40.2462C49.9453 40.2975 49.8953 40.3698 49.8713 40.452L46.1505 53.6887C45.9644 54.3523 45.5668 54.9371 45.0182 55.3543C44.4695 55.7716 43.7997 55.9984 43.1105 56.0003H39.168" stroke="black" stroke-width="2.3" stroke-linecap="round" stroke-linejoin="round"/>
</svg>
