<svg width="11" height="13" viewBox="0 0 11 13" fill="none" xmlns="http://www.w3.org/2000/svg">
<g clip-path="url(#clip0_1075_66)">
<path d="M10.7984 8.88516L10.4472 7.57903L10.8814 7.14484L10.9026 7.13778L9.89475 3.38003L9.35995 3.523L9.21698 2.98819L8.68218 3.13116L8.53921 2.59636L7.4696 2.88406L7.32663 2.34925L5.72222 2.77816L5.57926 2.24335L4.50965 2.53105L3.93601 0.391836L3.40121 0.534804L3.25824 0L2.17275 0.29123L1.78268 0.969001V0.972531L0.991946 1.75797L1.99448 5.4963L0.788968 5.8193L0 6.61003L0.146497 7.15896L0.434197 8.22856L0.969001 8.0856L1.11197 8.6204L1.64677 8.47743L1.93271 9.54704L2.46751 9.40407L2.75521 10.4719L3.29001 10.3289L3.57595 11.3986L4.11075 11.2556L4.39669 12.3252L4.54142 12.86L9.35289 11.5698L9.90358 11.4233L10.6925 10.6325L10.3431 9.32641L10.7773 8.89222L10.7984 8.88516Z" fill="black"/>
<path d="M4.33317 10.869L3.80013 11.012L3.51243 9.9424L2.97763 10.0854L2.69169 9.01576L2.15689 9.16049L1.87095 8.09089L1.33438 8.23385L1.19142 7.69905L0.656612 7.84202L0.353027 6.70357L0.953137 6.10346L2.38105 5.72045L1.34497 1.85327L2.13747 1.06784L3.03587 0.386536L3.17884 0.921339L3.71364 0.778372L4.28551 2.91759L5.35512 2.62989L5.49809 3.16469L7.1025 2.73579L7.24723 3.27059L8.31684 2.98466L8.45981 3.5177L8.99461 3.37473L9.13758 3.90953L9.67238 3.76657L10.5478 7.03187L10.096 7.48372L10.4419 8.77925L9.99009 9.2311L10.3413 10.539L9.73945 11.1391L4.76383 12.4735L4.33317 10.869Z" fill="white"/>
<path d="M9.3549 3.53004L9.21193 3.00053L8.68242 3.1435L8.53946 2.61399L7.46985 2.89992L7.32688 2.37041L5.71718 2.78872L5.57421 2.25922L4.5046 2.54515L3.93097 0.40064L3.40146 0.543608L3.25849 0.0140991L2.18359 0.296504L2.32655 0.826012L1.79705 0.96898L3.08728 5.78221L2.55777 5.92518L2.41481 5.39567L0.799805 5.82457L0.942772 6.35408L1.01514 6.62237L1.23577 7.42899L1.76528 7.28602L1.91001 7.81553L2.43952 7.67256L2.72722 8.74217L3.25673 8.5992L3.54266 9.66881L4.07217 9.52407L4.3581 10.5937L4.88761 10.4507L5.17531 11.5203L5.31828 12.0498L10.1492 10.7667L10.6787 10.6219L10.248 9.01751L10.7775 8.87454L10.3486 7.27013L10.8781 7.12717L9.88441 3.38883L9.3549 3.53004Z" fill="white"/>
<path d="M2.3283 0.829641L1.79297 0.973083L3.51245 7.39028L4.04779 7.24684L2.3283 0.829641Z" fill="black"/>
<path d="M3.26586 0.0055389L2.19238 0.293274L2.33648 0.830866L3.40995 0.543131L3.26586 0.0055389Z" fill="black"/>
<path d="M3.93182 0.400808L3.39648 0.54425L4.6861 5.35715L5.22143 5.2137L3.93182 0.400808Z" fill="black"/>
<path d="M5.5738 2.25349L4.50488 2.5401L4.64842 3.07541L5.71733 2.78879L5.5738 2.25349Z" fill="black"/>
<path d="M6.39769 3.1795L5.8623 3.32275L6.29162 4.9272L6.827 4.78395L6.39769 3.1795Z" fill="black"/>
<path d="M7.3211 2.35883L5.7168 2.7887L5.86024 3.32403L7.46454 2.89416L7.3211 2.35883Z" fill="black"/>
<path d="M8.18115 3.28956L7.64355 3.43365L8.07493 5.04301L8.61252 4.89891L8.18115 3.28956Z" fill="black"/>
<path d="M8.53283 2.60603L7.46387 2.89246L7.60731 3.42779L8.67627 3.14136L8.53283 2.60603Z" fill="black"/>
<path d="M9.21256 2.99752L8.67725 3.14105L8.82078 3.67636L9.35609 3.53283L9.21256 2.99752Z" fill="black"/>
<path d="M9.88983 3.39098L9.35449 3.53442L10.3577 7.27836L10.893 7.13491L9.88983 3.39098Z" fill="black"/>
<path d="M10.3581 7.27651L9.82275 7.42004L10.2529 9.02427L10.7882 8.88073L10.3581 7.27651Z" fill="black"/>
<path d="M10.2545 9.02303L9.71924 9.16656L10.1494 10.7708L10.6847 10.6273L10.2545 9.02303Z" fill="black"/>
<path d="M10.0588 10.2696L5.22559 11.5651L5.36968 12.1027L10.2029 10.8072L10.0588 10.2696Z" fill="black"/>
<path d="M3.08128 5.78784L2.5459 5.93109L2.68915 6.46648L3.22454 6.32322L3.08128 5.78784Z" fill="black"/>
<path d="M2.4032 5.39615L0.798828 5.82574L0.942177 6.3611L2.54655 5.93151L2.4032 5.39615Z" fill="black"/>
<path d="M1.47818 6.21553L0.942871 6.35907L1.22949 7.42798L1.7648 7.28445L1.47818 6.21553Z" fill="black"/>
<path d="M2.29996 7.14193L1.76465 7.28546L1.90818 7.82077L2.44349 7.67723L2.29996 7.14193Z" fill="black"/>
<path d="M2.97625 7.536L2.44092 7.67944L2.72735 8.74841L3.26268 8.60496L2.97625 7.536Z" fill="black"/>
<path d="M3.79852 8.46007L3.26318 8.60352L3.54961 9.67248L4.08495 9.52904L3.79852 8.46007Z" fill="black"/>
<path d="M4.61983 9.38753L4.08447 9.53088L4.37071 10.5999L4.90607 10.4565L4.61983 9.38753Z" fill="black"/>
<path d="M5.47851 10.3464L4.94092 10.4905L5.22865 11.564L5.76625 11.4199L5.47851 10.3464Z" fill="black"/>
</g>
<defs>
<clipPath id="clip0_1075_66">
<rect width="10.9026" height="12.86" fill="white"/>
</clipPath>
</defs>
</svg>
