<svg width="25" height="21" viewBox="0 0 25 21" fill="none" xmlns="http://www.w3.org/2000/svg">
<path d="M6.03989 21C4.47989 21 3.17989 20.36 2.13989 19.08C1.13989 17.8 0.639893 16.04 0.639893 13.8C0.639893 10.76 1.39989 8.06 2.91989 5.7C4.47989 3.34 6.59989 1.46 9.27989 0.0599976L10.8999 2.94C8.89989 4.1 7.35989 5.56 6.27989 7.32C5.19989 9.04 4.65989 11.04 4.65989 13.32L5.79989 18L2.49989 14.04C3.01989 13.48 3.59989 13.02 4.23989 12.66C4.91989 12.26 5.59989 12.06 6.27989 12.06C7.51989 12.06 8.51989 12.46 9.27989 13.26C10.0799 14.06 10.4799 15.1 10.4799 16.38C10.4799 17.74 10.0599 18.86 9.21989 19.74C8.41989 20.58 7.35989 21 6.03989 21ZM19.8399 21C18.2799 21 16.9799 20.36 15.9399 19.08C14.9399 17.8 14.4399 16.04 14.4399 13.8C14.4399 10.76 15.1999 8.06 16.7199 5.7C18.2799 3.34 20.3999 1.46 23.0799 0.0599976L24.6999 2.94C22.6999 4.1 21.1599 5.56 20.0799 7.32C18.9999 9.04 18.4599 11.04 18.4599 13.32L19.5999 18L16.2999 14.04C16.8199 13.48 17.3999 13.02 18.0399 12.66C18.7199 12.26 19.3999 12.06 20.0799 12.06C21.3199 12.06 22.3199 12.46 23.0799 13.26C23.8799 14.06 24.2799 15.1 24.2799 16.38C24.2799 17.74 23.8599 18.86 23.0199 19.74C22.2199 20.58 21.1599 21 19.8399 21Z" fill="#FF4016"/>
</svg>
