<svg width="25" height="21" viewBox="0 0 25 21" fill="none" xmlns="http://www.w3.org/2000/svg">
<path d="M18.9601 0C20.5201 0 21.82 0.64 22.8601 1.92C23.8601 3.2 24.3601 4.96 24.3601 7.2C24.3601 10.24 23.6001 12.94 22.0801 15.3C20.5201 17.66 18.4001 19.54 15.7201 20.94L14.1 18.06C16.1001 16.9 17.6401 15.44 18.7201 13.68C19.8001 11.96 20.34 9.96 20.34 7.68L19.2001 3L22.5001 6.96C21.9801 7.52 21.4 7.98 20.76 8.34C20.0801 8.74 19.4001 8.94 18.7201 8.94C17.4801 8.94 16.4801 8.54 15.7201 7.74C14.9201 6.94 14.5201 5.9 14.5201 4.62C14.5201 3.26 14.9401 2.14 15.7801 1.26C16.5801 0.42 17.6401 0 18.9601 0ZM5.16005 0C6.72005 0 8.02005 0.64 9.06005 1.92C10.0601 3.2 10.5601 4.96 10.5601 7.2C10.5601 10.24 9.80005 12.94 8.28005 15.3C6.72005 17.66 4.60005 19.54 1.92005 20.94L0.300049 18.06C2.30005 16.9 3.84005 15.44 4.92005 13.68C6.00005 11.96 6.54005 9.96 6.54005 7.68L5.40005 3L8.70005 6.96C8.18005 7.52 7.60005 7.98 6.96005 8.34C6.28005 8.74 5.60005 8.94 4.92005 8.94C3.68005 8.94 2.68005 8.54 1.92005 7.74C1.12005 6.94 0.720049 5.9 0.720049 4.62C0.720049 3.26 1.14005 2.14 1.98005 1.26C2.78005 0.42 3.84005 0 5.16005 0Z" fill="#FF4016"/>
</svg>
