<svg width="39" height="39" viewBox="0 0 39 39" fill="none" xmlns="http://www.w3.org/2000/svg">
<g clip-path="url(#clip0_1430_283)">
<path d="M6.5013 0.8112C6.5013 1.02634 6.58677 1.23268 6.7389 1.38481C6.89102 1.53693 7.09736 1.6224 7.3125 1.6224C7.52764 1.6224 7.73398 1.53693 7.8861 1.38481C8.03823 1.23268 8.1237 1.02634 8.1237 0.8112C8.1237 0.596056 8.03823 0.389724 7.8861 0.237595C7.73398 0.0854655 7.52764 0 7.3125 0C7.09736 0 6.89102 0.0854655 6.7389 0.237595C6.58677 0.389724 6.5013 0.596056 6.5013 0.8112ZM8.1237 0.8112C8.1237 1.02634 8.21307 1.23268 8.36519 1.38481C8.51732 1.53693 8.72366 1.6224 8.9388 1.6224C9.15394 1.6224 9.36028 1.53693 9.51241 1.38481C9.66453 1.23268 9.75 1.02634 9.75 0.8112C9.75 0.596056 9.66453 0.389724 9.51241 0.237595C9.36028 0.0854655 9.15394 0 8.9388 0C8.72366 0 8.51732 0.0854655 8.36519 0.237595C8.21307 0.389724 8.1237 0.596056 8.1237 0.8112ZM6.5013 2.4375C6.5013 2.65264 6.58677 2.85898 6.7389 3.0111C6.89102 3.16323 7.09736 3.2487 7.3125 3.2487C7.52764 3.2487 7.73398 3.16323 7.8861 3.0111C8.03823 2.85898 8.1237 2.65264 8.1237 2.4375C8.1237 2.22236 8.03823 2.01602 7.8861 1.86389C7.73398 1.71177 7.52764 1.6224 7.3125 1.6224C7.09736 1.6224 6.89102 1.71177 6.7389 1.86389C6.58677 2.01602 6.5013 2.22236 6.5013 2.4375ZM8.1237 2.4375C8.1237 2.65264 8.21307 2.85898 8.36519 3.0111C8.51732 3.16323 8.72366 3.2487 8.9388 3.2487C9.15394 3.2487 9.36028 3.16323 9.51241 3.0111C9.66453 2.85898 9.75 2.65264 9.75 2.4375C9.75 2.22236 9.66453 2.01602 9.51241 1.86389C9.36028 1.71177 9.15394 1.6224 8.9388 1.6224C8.72366 1.6224 8.51732 1.71177 8.36519 1.86389C8.21307 2.01602 8.1237 2.22236 8.1237 2.4375ZM6.5013 4.0638C6.5013 4.27894 6.58677 4.48528 6.7389 4.63741C6.89102 4.78953 7.09736 4.875 7.3125 4.875C7.52764 4.875 7.73398 4.78953 7.8861 4.63741C8.03823 4.48528 8.1237 4.27894 8.1237 4.0638C8.1237 3.84866 8.03823 3.64232 7.8861 3.49019C7.73398 3.33807 7.52764 3.2487 7.3125 3.2487C7.09736 3.2487 6.89102 3.33807 6.7389 3.49019C6.58677 3.64232 6.5013 3.84866 6.5013 4.0638ZM8.1237 4.0638C8.1237 4.27894 8.21307 4.48528 8.36519 4.63741C8.51732 4.78953 8.72366 4.875 8.9388 4.875C9.15394 4.875 9.36028 4.78953 9.51241 4.63741C9.66453 4.48528 9.75 4.27894 9.75 4.0638C9.75 3.84866 9.66453 3.64232 9.51241 3.49019C9.36028 3.33807 9.15394 3.2487 8.9388 3.2487C8.72366 3.2487 8.51732 3.33807 8.36519 3.49019C8.21307 3.64232 8.1237 3.84866 8.1237 4.0638ZM32.5026 4.0638C32.5026 4.17033 32.5236 4.27581 32.5643 4.37423C32.6051 4.47265 32.6649 4.56208 32.7402 4.63741C32.8155 4.71273 32.9049 4.77248 33.0034 4.81325C33.1018 4.85402 33.2073 4.875 33.3138 4.875C33.4203 4.875 33.5258 4.85402 33.6242 4.81325C33.7227 4.77248 33.8121 4.71273 33.8874 4.63741C33.9627 4.56208 34.0225 4.47265 34.0633 4.37423C34.104 4.27581 34.125 4.17033 34.125 4.0638C34.125 3.95727 34.104 3.85179 34.0633 3.75337C34.0225 3.65495 33.9627 3.56552 33.8874 3.49019C33.8121 3.41487 33.7227 3.35512 33.6242 3.31435C33.5258 3.27358 33.4203 3.2526 33.3138 3.2526C33.2073 3.2526 33.1018 3.27358 33.0034 3.31435C32.9049 3.35512 32.8155 3.41487 32.7402 3.49019C32.6649 3.56552 32.6051 3.65495 32.5643 3.75337C32.5236 3.85179 32.5026 3.95727 32.5026 4.0638ZM34.125 4.0638C34.125 4.27894 34.2105 4.48528 34.3626 4.63741C34.5147 4.78953 34.7211 4.875 34.9362 4.875C35.1513 4.875 35.3577 4.78953 35.5098 4.63741C35.6619 4.48528 35.7474 4.27894 35.7474 4.0638C35.7474 3.84866 35.6619 3.64232 35.5098 3.49019C35.3577 3.33807 35.1513 3.2526 34.9362 3.2526C34.7211 3.2526 34.5147 3.33807 34.3626 3.49019C34.2105 3.64232 34.125 3.84866 34.125 4.0638ZM4.875 5.6862C4.875 5.90134 4.96047 6.10768 5.11259 6.25981C5.26472 6.41193 5.47106 6.4974 5.6862 6.4974C5.90134 6.4974 6.10768 6.41193 6.25981 6.25981C6.41193 6.10768 6.4974 5.90134 6.4974 5.6862C6.4974 5.47106 6.41193 5.26472 6.25981 5.11259C6.10768 4.96047 5.90134 4.875 5.6862 4.875C5.47106 4.875 5.26472 4.96047 5.11259 5.11259C4.96047 5.26472 4.875 5.47106 4.875 5.6862ZM6.4974 5.6862C6.4974 5.90134 6.58677 6.10768 6.7389 6.25981C6.89102 6.41193 7.09736 6.4974 7.3125 6.4974C7.52764 6.4974 7.73398 6.41193 7.8861 6.25981C8.03823 6.10768 8.1237 5.90134 8.1237 5.6862C8.1237 5.47106 8.03823 5.26472 7.8861 5.11259C7.73398 4.96047 7.52764 4.875 7.3125 4.875C7.09736 4.875 6.89102 4.96047 6.7389 5.11259C6.58677 5.26472 6.4974 5.47106 6.4974 5.6862ZM8.1237 5.6862C8.1237 5.90134 8.21307 6.10768 8.36519 6.25981C8.51732 6.41193 8.72366 6.4974 8.9388 6.4974C9.15394 6.4974 9.36028 6.41193 9.51241 6.25981C9.66453 6.10768 9.75 5.90134 9.75 5.6862C9.75 5.47106 9.66453 5.26472 9.51241 5.11259C9.36028 4.96047 9.15394 4.875 8.9388 4.875C8.72366 4.875 8.51732 4.96047 8.36519 5.11259C8.21307 5.26472 8.1237 5.47106 8.1237 5.6862ZM9.75 5.6862C9.75 5.79273 9.77098 5.89821 9.81175 5.99663C9.85252 6.09505 9.91227 6.18448 9.9876 6.25981C10.0629 6.33513 10.1523 6.39488 10.2508 6.43565C10.3492 6.47642 10.4547 6.4974 10.5612 6.4974C10.6677 6.4974 10.7732 6.47642 10.8716 6.43565C10.9701 6.39488 11.0595 6.33513 11.1348 6.25981C11.2101 6.18448 11.2699 6.09505 11.3107 5.99663C11.3514 5.89821 11.3724 5.79273 11.3724 5.6862C11.3724 5.47106 11.2869 5.26472 11.1348 5.11259C10.9827 4.96047 10.7763 4.875 10.5612 4.875C10.3461 4.875 10.1397 4.96047 9.9876 5.11259C9.83547 5.26472 9.75 5.47106 9.75 5.6862ZM32.5026 5.6862C32.5026 5.79273 32.5236 5.89821 32.5643 5.99663C32.6051 6.09505 32.6649 6.18448 32.7402 6.25981C32.8155 6.33513 32.9049 6.39488 33.0034 6.43565C33.1018 6.47642 33.2073 6.4974 33.3138 6.4974C33.4203 6.4974 33.5258 6.47642 33.6242 6.43565C33.7227 6.39488 33.8121 6.33513 33.8874 6.25981C33.9627 6.18448 34.0225 6.09505 34.0633 5.99663C34.104 5.89821 34.125 5.79273 34.125 5.6862C34.125 5.57967 34.104 5.47419 34.0633 5.37577C34.0225 5.27735 33.9627 5.18792 33.8874 5.11259C33.8121 5.03727 33.7227 4.97752 33.6242 4.93675C33.5258 4.89598 33.4203 4.875 33.3138 4.875C33.2073 4.875 33.1018 4.89598 33.0034 4.93675C32.9049 4.97752 32.8155 5.03727 32.7402 5.11259C32.6649 5.18792 32.6051 5.27735 32.5643 5.37577C32.5236 5.47419 32.5026 5.57967 32.5026 5.6862ZM34.125 5.6862C34.125 5.90134 34.2105 6.10768 34.3626 6.25981C34.5147 6.41193 34.7211 6.4974 34.9362 6.4974C35.1513 6.4974 35.3577 6.41193 35.5098 6.25981C35.6619 6.10768 35.7474 5.90134 35.7474 5.6862C35.7474 5.47106 35.6619 5.26472 35.5098 5.11259C35.3577 4.96047 35.1513 4.875 34.9362 4.875C34.7211 4.875 34.5147 4.96047 34.3626 5.11259C34.2105 5.26472 34.125 5.47106 34.125 5.6862ZM0 7.3125C0 7.52764 0.0854655 7.73398 0.237595 7.8861C0.389724 8.03823 0.596056 8.1237 0.8112 8.1237C1.02634 8.1237 1.23268 8.03823 1.38481 7.8861C1.53693 7.73398 1.6224 7.52764 1.6224 7.3125C1.6224 7.09736 1.53693 6.89102 1.38481 6.7389C1.23268 6.58677 1.02634 6.5013 0.8112 6.5013C0.596056 6.5013 0.389724 6.58677 0.237595 6.7389C0.0854655 6.89102 0 7.09736 0 7.3125ZM1.6224 7.3125C1.6224 7.52764 1.71177 7.73398 1.86389 7.8861C2.01602 8.03823 2.22236 8.1237 2.4375 8.1237C2.65264 8.1237 2.85898 8.03823 3.0111 7.8861C3.16323 7.73398 3.2487 7.52764 3.2487 7.3125C3.2487 7.09736 3.16323 6.89102 3.0111 6.7389C2.85898 6.58677 2.65264 6.5013 2.4375 6.5013C2.22236 6.5013 2.01602 6.58677 1.86389 6.7389C1.71177 6.89102 1.6224 7.09736 1.6224 7.3125ZM3.2487 7.3125C3.2487 7.52764 3.33807 7.73398 3.49019 7.8861C3.64232 8.03823 3.84866 8.1237 4.0638 8.1237C4.27894 8.1237 4.48528 8.03823 4.63741 7.8861C4.78953 7.73398 4.875 7.52764 4.875 7.3125C4.875 7.09736 4.78953 6.89102 4.63741 6.7389C4.48528 6.58677 4.27894 6.5013 4.0638 6.5013C3.84866 6.5013 3.64232 6.58677 3.49019 6.7389C3.33807 6.89102 3.2487 7.09736 3.2487 7.3125ZM4.875 7.3125C4.875 7.52764 4.96047 7.73398 5.11259 7.8861C5.26472 8.03823 5.47106 8.1237 5.6862 8.1237C5.90134 8.1237 6.10768 8.03823 6.25981 7.8861C6.41193 7.73398 6.4974 7.52764 6.4974 7.3125C6.4974 7.09736 6.41193 6.89102 6.25981 6.7389C6.10768 6.58677 5.90134 6.4974 5.6862 6.4974C5.47106 6.4974 5.26472 6.58677 5.11259 6.7389C4.96047 6.89102 4.875 7.09736 4.875 7.3125ZM6.4974 7.3125C6.4974 7.52764 6.58677 7.73398 6.7389 7.8861C6.89102 8.03823 7.09736 8.1237 7.3125 8.1237C7.52764 8.1237 7.73398 8.03823 7.8861 7.8861C8.03823 7.73398 8.1237 7.52764 8.1237 7.3125C8.1237 7.09736 8.03823 6.89102 7.8861 6.7389C7.73398 6.58677 7.52764 6.4974 7.3125 6.4974C7.09736 6.4974 6.89102 6.58677 6.7389 6.7389C6.58677 6.89102 6.4974 7.09736 6.4974 7.3125ZM8.1237 7.3125C8.1237 7.52764 8.21307 7.73398 8.36519 7.8861C8.51732 8.03823 8.72366 8.1237 8.9388 8.1237C9.15394 8.1237 9.36028 8.03823 9.51241 7.8861C9.66453 7.73398 9.75 7.52764 9.75 7.3125C9.75 7.09736 9.66453 6.89102 9.51241 6.7389C9.36028 6.58677 9.15394 6.4974 8.9388 6.4974C8.72366 6.4974 8.51732 6.58677 8.36519 6.7389C8.21307 6.89102 8.1237 7.09736 8.1237 7.3125ZM9.75 7.3125C9.75 7.41903 9.77098 7.52451 9.81175 7.62293C9.85252 7.72135 9.91227 7.81078 9.9876 7.8861C10.0629 7.96143 10.1523 8.02118 10.2508 8.06195C10.3492 8.10272 10.4547 8.1237 10.5612 8.1237C10.6677 8.1237 10.7732 8.10272 10.8716 8.06195C10.9701 8.02118 11.0595 7.96143 11.1348 7.8861C11.2101 7.81078 11.2699 7.72135 11.3107 7.62293C11.3514 7.52451 11.3724 7.41903 11.3724 7.3125C11.3724 7.09736 11.2869 6.89102 11.1348 6.7389C10.9827 6.58677 10.7763 6.4974 10.5612 6.4974C10.3461 6.4974 10.1397 6.58677 9.9876 6.7389C9.83547 6.89102 9.75 7.09736 9.75 7.3125ZM11.3724 7.3125C11.3724 7.52764 11.4618 7.73398 11.6139 7.8861C11.766 8.03823 11.9724 8.1237 12.1875 8.1237C12.4026 8.1237 12.609 8.03823 12.7611 7.8861C12.9132 7.73398 12.9987 7.52764 12.9987 7.3125C12.9987 7.20597 12.9777 7.10049 12.937 7.00207C12.8962 6.90365 12.8364 6.81422 12.7611 6.7389C12.6858 6.66357 12.5964 6.60382 12.4979 6.56305C12.3995 6.52228 12.294 6.5013 12.1875 6.5013C12.081 6.5013 11.9755 6.52228 11.8771 6.56305C11.7786 6.60382 11.6892 6.66357 11.6139 6.7389C11.5386 6.81422 11.4788 6.90365 11.438 7.00207C11.3973 7.10049 11.3724 7.20597 11.3724 7.3125ZM12.9987 7.3125C12.9987 7.41903 13.0236 7.52451 13.0643 7.62293C13.1051 7.72135 13.1649 7.81078 13.2402 7.8861C13.3155 7.96143 13.4049 8.02118 13.5034 8.06195C13.6018 8.10272 13.7073 8.1237 13.8138 8.1237C13.9203 8.1237 14.0258 8.10272 14.1242 8.06195C14.2227 8.02118 14.3121 7.96143 14.3874 7.8861C14.4627 7.81078 14.5225 7.72135 14.5633 7.62293C14.604 7.52451 14.625 7.41903 14.625 7.3125C14.625 7.20597 14.604 7.10049 14.5633 7.00207C14.5225 6.90365 14.4627 6.81422 14.3874 6.7389C14.3121 6.66357 14.2227 6.60382 14.1242 6.56305C14.0258 6.52228 13.9203 6.5013 13.8138 6.5013C13.7073 6.5013 13.6018 6.52228 13.5034 6.56305C13.4049 6.60382 13.3155 6.66357 13.2402 6.7389C13.1649 6.81422 13.1051 6.90365 13.0643 7.00207C13.0236 7.10049 12.9987 7.20597 12.9987 7.3125ZM14.625 7.3125C14.625 7.52764 14.7105 7.73398 14.8626 7.8861C15.0147 8.03823 15.2211 8.1237 15.4362 8.1237C15.6513 8.1237 15.8577 8.03823 16.0098 7.8861C16.1619 7.73398 16.2474 7.52764 16.2474 7.3125C16.2474 7.09736 16.1619 6.89102 16.0098 6.7389C15.8577 6.58677 15.6513 6.5013 15.4362 6.5013C15.2211 6.5013 15.0147 6.58677 14.8626 6.7389C14.7105 6.89102 14.625 7.09736 14.625 7.3125ZM29.25 7.3125C29.25 7.52764 29.3355 7.73398 29.4876 7.8861C29.6397 8.03823 29.8461 8.1237 30.0612 8.1237C30.2763 8.1237 30.4827 8.03823 30.6348 7.8861C30.7869 7.73398 30.8724 7.52764 30.8724 7.3125C30.8724 7.09736 30.7869 6.89102 30.6348 6.7389C30.4827 6.58677 30.2763 6.5013 30.0612 6.5013C29.8461 6.5013 29.6397 6.58677 29.4876 6.7389C29.3355 6.89102 29.25 7.09736 29.25 7.3125ZM30.8724 7.3125C30.8724 7.52764 30.9618 7.73398 31.1139 7.8861C31.266 8.03823 31.4724 8.1237 31.6875 8.1237C31.9026 8.1237 32.109 8.03823 32.2611 7.8861C32.4132 7.73398 32.4987 7.52764 32.4987 7.3125C32.4987 7.09736 32.4132 6.89102 32.2611 6.7389C32.109 6.58677 31.9026 6.5013 31.6875 6.5013C31.4724 6.5013 31.266 6.58677 31.1139 6.7389C30.9618 6.89102 30.8724 7.09736 30.8724 7.3125ZM32.4987 7.3125C32.4987 7.41903 32.5236 7.52451 32.5643 7.62293C32.6051 7.72135 32.6649 7.81078 32.7402 7.8861C32.8155 7.96143 32.9049 8.02118 33.0034 8.06195C33.1018 8.10272 33.2073 8.1237 33.3138 8.1237C33.4203 8.1237 33.5258 8.10272 33.6242 8.06195C33.7227 8.02118 33.8121 7.96143 33.8874 7.8861C33.9627 7.81078 34.0225 7.72135 34.0633 7.62293C34.104 7.52451 34.125 7.41903 34.125 7.3125C34.125 7.20597 34.104 7.10049 34.0633 7.00207C34.0225 6.90365 33.9627 6.81422 33.8874 6.7389C33.8121 6.66357 33.7227 6.60382 33.6242 6.56305C33.5258 6.52228 33.4203 6.4974 33.3138 6.4974C33.2073 6.4974 33.1018 6.52228 33.0034 6.56305C32.9049 6.60382 32.8155 6.66357 32.7402 6.7389C32.6649 6.81422 32.6051 6.90365 32.5643 7.00207C32.5236 7.10049 32.4987 7.20597 32.4987 7.3125ZM34.125 7.3125C34.125 7.52764 34.2105 7.73398 34.3626 7.8861C34.5147 8.03823 34.7211 8.1237 34.9362 8.1237C35.1513 8.1237 35.3577 8.03823 35.5098 7.8861C35.6619 7.73398 35.7474 7.52764 35.7474 7.3125C35.7474 7.09736 35.6619 6.89102 35.5098 6.7389C35.3577 6.58677 35.1513 6.4974 34.9362 6.4974C34.7211 6.4974 34.5147 6.58677 34.3626 6.7389C34.2105 6.89102 34.125 7.09736 34.125 7.3125ZM35.7474 7.3125C35.7474 7.52764 35.8368 7.73398 35.9889 7.8861C36.141 8.03823 36.3474 8.1237 36.5625 8.1237C36.7776 8.1237 36.984 8.03823 37.1361 7.8861C37.2882 7.73398 37.3737 7.52764 37.3737 7.3125C37.3737 7.09736 37.2882 6.89102 37.1361 6.7389C36.984 6.58677 36.7776 6.5013 36.5625 6.5013C36.3474 6.5013 36.141 6.58677 35.9889 6.7389C35.8368 6.89102 35.7474 7.09736 35.7474 7.3125ZM37.3737 7.3125C37.3737 7.52764 37.4631 7.73398 37.6152 7.8861C37.7673 8.03823 37.9737 8.1237 38.1888 8.1237C38.4039 8.1237 38.6103 8.03823 38.7624 7.8861C38.9145 7.73398 39 7.52764 39 7.3125C39 7.09736 38.9145 6.89102 38.7624 6.7389C38.6103 6.58677 38.4039 6.5013 38.1888 6.5013C37.9737 6.5013 37.7673 6.58677 37.6152 6.7389C37.4631 6.89102 37.3737 7.09736 37.3737 7.3125ZM0 8.9388C0 9.15394 0.0854655 9.36028 0.237595 9.51241C0.389724 9.66453 0.596056 9.75 0.8112 9.75C1.02634 9.75 1.23268 9.66453 1.38481 9.51241C1.53693 9.36028 1.6224 9.15394 1.6224 8.9388C1.6224 8.72366 1.53693 8.51732 1.38481 8.36519C1.23268 8.21307 1.02634 8.1237 0.8112 8.1237C0.596056 8.1237 0.389724 8.21307 0.237595 8.36519C0.0854655 8.51732 0 8.72366 0 8.9388ZM1.6224 8.9388C1.6224 9.15394 1.71177 9.36028 1.86389 9.51241C2.01602 9.66453 2.22236 9.75 2.4375 9.75C2.65264 9.75 2.85898 9.66453 3.0111 9.51241C3.16323 9.36028 3.2487 9.15394 3.2487 8.9388C3.2487 8.72366 3.16323 8.51732 3.0111 8.36519C2.85898 8.21307 2.65264 8.1237 2.4375 8.1237C2.22236 8.1237 2.01602 8.21307 1.86389 8.36519C1.71177 8.51732 1.6224 8.72366 1.6224 8.9388ZM3.2487 8.9388C3.2487 9.15394 3.33807 9.36028 3.49019 9.51241C3.64232 9.66453 3.84866 9.75 4.0638 9.75C4.27894 9.75 4.48528 9.66453 4.63741 9.51241C4.78953 9.36028 4.875 9.15394 4.875 8.9388C4.875 8.72366 4.78953 8.51732 4.63741 8.36519C4.48528 8.21307 4.27894 8.1237 4.0638 8.1237C3.84866 8.1237 3.64232 8.21307 3.49019 8.36519C3.33807 8.51732 3.2487 8.72366 3.2487 8.9388ZM4.875 8.9388C4.875 9.15394 4.96047 9.36028 5.11259 9.51241C5.26472 9.66453 5.47106 9.75 5.6862 9.75C5.90134 9.75 6.10768 9.66453 6.25981 9.51241C6.41193 9.36028 6.4974 9.15394 6.4974 8.9388C6.4974 8.72366 6.41193 8.51732 6.25981 8.36519C6.10768 8.21307 5.90134 8.1237 5.6862 8.1237C5.47106 8.1237 5.26472 8.21307 5.11259 8.36519C4.96047 8.51732 4.875 8.72366 4.875 8.9388ZM6.4974 8.9388C6.4974 9.15394 6.58677 9.36028 6.7389 9.51241C6.89102 9.66453 7.09736 9.75 7.3125 9.75C7.52764 9.75 7.73398 9.66453 7.8861 9.51241C8.03823 9.36028 8.1237 9.15394 8.1237 8.9388C8.1237 8.72366 8.03823 8.51732 7.8861 8.36519C7.73398 8.21307 7.52764 8.1237 7.3125 8.1237C7.09736 8.1237 6.89102 8.21307 6.7389 8.36519C6.58677 8.51732 6.4974 8.72366 6.4974 8.9388ZM8.1237 8.9388C8.1237 9.15394 8.21307 9.36028 8.36519 9.51241C8.51732 9.66453 8.72366 9.75 8.9388 9.75C9.15394 9.75 9.36028 9.66453 9.51241 9.51241C9.66453 9.36028 9.75 9.15394 9.75 8.9388C9.75 8.72366 9.66453 8.51732 9.51241 8.36519C9.36028 8.21307 9.15394 8.1237 8.9388 8.1237C8.72366 8.1237 8.51732 8.21307 8.36519 8.36519C8.21307 8.51732 8.1237 8.72366 8.1237 8.9388ZM9.75 8.9388C9.75 9.04533 9.77098 9.15081 9.81175 9.24923C9.85252 9.34765 9.91227 9.43708 9.9876 9.51241C10.0629 9.58773 10.1523 9.64748 10.2508 9.68825C10.3492 9.72902 10.4547 9.75 10.5612 9.75C10.6677 9.75 10.7732 9.72902 10.8716 9.68825C10.9701 9.64748 11.0595 9.58773 11.1348 9.51241C11.2101 9.43708 11.2699 9.34765 11.3107 9.24923C11.3514 9.15081 11.3724 9.04533 11.3724 8.9388C11.3724 8.72366 11.2869 8.51732 11.1348 8.36519C10.9827 8.21307 10.7763 8.1237 10.5612 8.1237C10.3461 8.1237 10.1397 8.21307 9.9876 8.36519C9.83547 8.51732 9.75 8.72366 9.75 8.9388ZM11.3724 8.9388C11.3724 9.15394 11.4618 9.36028 11.6139 9.51241C11.766 9.66453 11.9724 9.75 12.1875 9.75C12.4026 9.75 12.609 9.66453 12.7611 9.51241C12.9132 9.36028 12.9987 9.15394 12.9987 8.9388C12.9987 8.83227 12.9777 8.72679 12.937 8.62837C12.8962 8.52995 12.8364 8.44052 12.7611 8.36519C12.6858 8.28987 12.5964 8.23012 12.4979 8.18935C12.3995 8.14858 12.294 8.1237 12.1875 8.1237C12.081 8.1237 11.9755 8.14858 11.8771 8.18935C11.7786 8.23012 11.6892 8.28987 11.6139 8.36519C11.5386 8.44052 11.4788 8.52995 11.438 8.62837C11.3973 8.72679 11.3724 8.83227 11.3724 8.9388ZM12.9987 8.9388C12.9987 9.04533 13.0236 9.15081 13.0643 9.24923C13.1051 9.34765 13.1649 9.43708 13.2402 9.51241C13.3155 9.58773 13.4049 9.64748 13.5034 9.68825C13.6018 9.72902 13.7073 9.75 13.8138 9.75C13.9203 9.75 14.0258 9.72902 14.1242 9.68825C14.2227 9.64748 14.3121 9.58773 14.3874 9.51241C14.4627 9.43708 14.5225 9.34765 14.5633 9.24923C14.604 9.15081 14.625 9.04533 14.625 8.9388C14.625 8.83227 14.604 8.72679 14.5633 8.62837C14.5225 8.52995 14.4627 8.44052 14.3874 8.36519C14.3121 8.28987 14.2227 8.23012 14.1242 8.18935C14.0258 8.14858 13.9203 8.1237 13.8138 8.1237C13.7073 8.1237 13.6018 8.14858 13.5034 8.18935C13.4049 8.23012 13.3155 8.28987 13.2402 8.36519C13.1649 8.44052 13.1051 8.52995 13.0643 8.62837C13.0236 8.72679 12.9987 8.83227 12.9987 8.9388ZM14.625 8.9388C14.625 9.15394 14.7105 9.36028 14.8626 9.51241C15.0147 9.66453 15.2211 9.75 15.4362 9.75C15.6513 9.75 15.8577 9.66453 16.0098 9.51241C16.1619 9.36028 16.2474 9.15394 16.2474 8.9388C16.2474 8.72366 16.1619 8.51732 16.0098 8.36519C15.8577 8.21307 15.6513 8.1237 15.4362 8.1237C15.2211 8.1237 15.0147 8.21307 14.8626 8.36519C14.7105 8.51732 14.625 8.72366 14.625 8.9388ZM29.25 8.9388C29.25 9.15394 29.3355 9.36028 29.4876 9.51241C29.6397 9.66453 29.8461 9.75 30.0612 9.75C30.2763 9.75 30.4827 9.66453 30.6348 9.51241C30.7869 9.36028 30.8724 9.15394 30.8724 8.9388C30.8724 8.72366 30.7869 8.51732 30.6348 8.36519C30.4827 8.21307 30.2763 8.1237 30.0612 8.1237C29.8461 8.1237 29.6397 8.21307 29.4876 8.36519C29.3355 8.51732 29.25 8.72366 29.25 8.9388ZM30.8724 8.9388C30.8724 9.15394 30.9618 9.36028 31.1139 9.51241C31.266 9.66453 31.4724 9.75 31.6875 9.75C31.9026 9.75 32.109 9.66453 32.2611 9.51241C32.4132 9.36028 32.4987 9.15394 32.4987 8.9388C32.4987 8.72366 32.4132 8.51732 32.2611 8.36519C32.109 8.21307 31.9026 8.1237 31.6875 8.1237C31.4724 8.1237 31.266 8.21307 31.1139 8.36519C30.9618 8.51732 30.8724 8.72366 30.8724 8.9388ZM32.4987 8.9388C32.4987 9.04533 32.5236 9.15081 32.5643 9.24923C32.6051 9.34765 32.6649 9.43708 32.7402 9.51241C32.8155 9.58773 32.9049 9.64748 33.0034 9.68825C33.1018 9.72902 33.2073 9.75 33.3138 9.75C33.4203 9.75 33.5258 9.72902 33.6242 9.68825C33.7227 9.64748 33.8121 9.58773 33.8874 9.51241C33.9627 9.43708 34.0225 9.34765 34.0633 9.24923C34.104 9.15081 34.125 9.04533 34.125 8.9388C34.125 8.83227 34.104 8.72679 34.0633 8.62837C34.0225 8.52995 33.9627 8.44052 33.8874 8.36519C33.8121 8.28987 33.7227 8.23012 33.6242 8.18935C33.5258 8.14858 33.4203 8.1237 33.3138 8.1237C33.2073 8.1237 33.1018 8.14858 33.0034 8.18935C32.9049 8.23012 32.8155 8.28987 32.7402 8.36519C32.6649 8.44052 32.6051 8.52995 32.5643 8.62837C32.5236 8.72679 32.4987 8.83227 32.4987 8.9388ZM34.125 8.9388C34.125 9.15394 34.2105 9.36028 34.3626 9.51241C34.5147 9.66453 34.7211 9.75 34.9362 9.75C35.1513 9.75 35.3577 9.66453 35.5098 9.51241C35.6619 9.36028 35.7474 9.15394 35.7474 8.9388C35.7474 8.72366 35.6619 8.51732 35.5098 8.36519C35.3577 8.21307 35.1513 8.1237 34.9362 8.1237C34.7211 8.1237 34.5147 8.21307 34.3626 8.36519C34.2105 8.51732 34.125 8.72366 34.125 8.9388ZM35.7474 8.9388C35.7474 9.15394 35.8368 9.36028 35.9889 9.51241C36.141 9.66453 36.3474 9.75 36.5625 9.75C36.7776 9.75 36.984 9.66453 37.1361 9.51241C37.2882 9.36028 37.3737 9.15394 37.3737 8.9388C37.3737 8.72366 37.2882 8.51732 37.1361 8.36519C36.984 8.21307 36.7776 8.1237 36.5625 8.1237C36.3474 8.1237 36.141 8.21307 35.9889 8.36519C35.8368 8.51732 35.7474 8.72366 35.7474 8.9388ZM37.3737 8.9388C37.3737 9.15394 37.4631 9.36028 37.6152 9.51241C37.7673 9.66453 37.9737 9.75 38.1888 9.75C38.4039 9.75 38.6103 9.66453 38.7624 9.51241C38.9145 9.36028 39 9.15394 39 8.9388C39 8.72366 38.9145 8.51732 38.7624 8.36519C38.6103 8.21307 38.4039 8.1237 38.1888 8.1237C37.9737 8.1237 37.7673 8.21307 37.6152 8.36519C37.4631 8.51732 37.3737 8.72366 37.3737 8.9388ZM4.875 10.5612C4.875 10.7763 4.96047 10.9827 5.11259 11.1348C5.26472 11.2869 5.47106 11.3724 5.6862 11.3724C5.90134 11.3724 6.10768 11.2869 6.25981 11.1348C6.41193 10.9827 6.4974 10.7763 6.4974 10.5612C6.4974 10.3461 6.41193 10.1397 6.25981 9.9876C6.10768 9.83547 5.90134 9.75 5.6862 9.75C5.47106 9.75 5.26472 9.83547 5.11259 9.9876C4.96047 10.1397 4.875 10.3461 4.875 10.5612ZM6.4974 10.5612C6.4974 10.7763 6.58677 10.9827 6.7389 11.1348C6.89102 11.2869 7.09736 11.3724 7.3125 11.3724C7.52764 11.3724 7.73398 11.2869 7.8861 11.1348C8.03823 10.9827 8.1237 10.7763 8.1237 10.5612C8.1237 10.3461 8.03823 10.1397 7.8861 9.9876C7.73398 9.83547 7.52764 9.75 7.3125 9.75C7.09736 9.75 6.89102 9.83547 6.7389 9.9876C6.58677 10.1397 6.4974 10.3461 6.4974 10.5612ZM8.1237 10.5612C8.1237 10.7763 8.21307 10.9827 8.36519 11.1348C8.51732 11.2869 8.72366 11.3724 8.9388 11.3724C9.15394 11.3724 9.36028 11.2869 9.51241 11.1348C9.66453 10.9827 9.75 10.7763 9.75 10.5612C9.75 10.3461 9.66453 10.1397 9.51241 9.9876C9.36028 9.83547 9.15394 9.75 8.9388 9.75C8.72366 9.75 8.51732 9.83547 8.36519 9.9876C8.21307 10.1397 8.1237 10.3461 8.1237 10.5612ZM9.75 10.5612C9.75 10.6677 9.77098 10.7732 9.81175 10.8716C9.85252 10.9701 9.91227 11.0595 9.9876 11.1348C10.0629 11.2101 10.1523 11.2699 10.2508 11.3107C10.3492 11.3514 10.4547 11.3724 10.5612 11.3724C10.6677 11.3724 10.7732 11.3514 10.8716 11.3107C10.9701 11.2699 11.0595 11.2101 11.1348 11.1348C11.2101 11.0595 11.2699 10.9701 11.3107 10.8716C11.3514 10.7732 11.3724 10.6677 11.3724 10.5612C11.3724 10.3461 11.2869 10.1397 11.1348 9.9876C10.9827 9.83547 10.7763 9.75 10.5612 9.75C10.3461 9.75 10.1397 9.83547 9.9876 9.9876C9.83547 10.1397 9.75 10.3461 9.75 10.5612ZM21.1263 10.5612C21.1263 10.7763 21.2118 10.9827 21.3639 11.1348C21.516 11.2869 21.7224 11.3724 21.9375 11.3724C22.1526 11.3724 22.359 11.2869 22.5111 11.1348C22.6632 10.9827 22.7487 10.7763 22.7487 10.5612C22.7487 10.3461 22.6632 10.1397 22.5111 9.9876C22.359 9.83547 22.1526 9.75 21.9375 9.75C21.7224 9.75 21.516 9.83547 21.3639 9.9876C21.2118 10.1397 21.1263 10.3461 21.1263 10.5612ZM22.7487 10.5612C22.7487 10.7763 22.8381 10.9827 22.9902 11.1348C23.1423 11.2869 23.3487 11.3724 23.5638 11.3724C23.7789 11.3724 23.9853 11.2869 24.1374 11.1348C24.2895 10.9827 24.375 10.7763 24.375 10.5612C24.375 10.3461 24.2895 10.1397 24.1374 9.9876C23.9853 9.83547 23.7789 9.75 23.5638 9.75C23.3487 9.75 23.1423 9.83547 22.9902 9.9876C22.8381 10.1397 22.7487 10.3461 22.7487 10.5612ZM32.5026 10.5612C32.5026 10.6677 32.5236 10.7732 32.5643 10.8716C32.6051 10.9701 32.6649 11.0595 32.7402 11.1348C32.8155 11.2101 32.9049 11.2699 33.0034 11.3107C33.1018 11.3514 33.2073 11.3724 33.3138 11.3724C33.4203 11.3724 33.5258 11.3514 33.6242 11.3107C33.7227 11.2699 33.8121 11.2101 33.8874 11.1348C33.9627 11.0595 34.0225 10.9701 34.0633 10.8716C34.104 10.7732 34.125 10.6677 34.125 10.5612C34.125 10.4547 34.104 10.3492 34.0633 10.2508C34.0225 10.1523 33.9627 10.0629 33.8874 9.9876C33.8121 9.91227 33.7227 9.85252 33.6242 9.81175C33.5258 9.77098 33.4203 9.75 33.3138 9.75C33.2073 9.75 33.1018 9.77098 33.0034 9.81175C32.9049 9.85252 32.8155 9.91227 32.7402 9.9876C32.6649 10.0629 32.6051 10.1523 32.5643 10.2508C32.5236 10.3492 32.5026 10.4547 32.5026 10.5612ZM34.125 10.5612C34.125 10.7763 34.2105 10.9827 34.3626 11.1348C34.5147 11.2869 34.7211 11.3724 34.9362 11.3724C35.1513 11.3724 35.3577 11.2869 35.5098 11.1348C35.6619 10.9827 35.7474 10.7763 35.7474 10.5612C35.7474 10.3461 35.6619 10.1397 35.5098 9.9876C35.3577 9.83547 35.1513 9.75 34.9362 9.75C34.7211 9.75 34.5147 9.83547 34.3626 9.9876C34.2105 10.1397 34.125 10.3461 34.125 10.5612ZM6.5013 12.1875C6.5013 12.4026 6.58677 12.609 6.7389 12.7611C6.89102 12.9132 7.09736 12.9987 7.3125 12.9987C7.52764 12.9987 7.73398 12.9132 7.8861 12.7611C8.03823 12.609 8.1237 12.4026 8.1237 12.1875C8.1237 11.9724 8.03823 11.766 7.8861 11.6139C7.73398 11.4618 7.52764 11.3724 7.3125 11.3724C7.09736 11.3724 6.89102 11.4618 6.7389 11.6139C6.58677 11.766 6.5013 11.9724 6.5013 12.1875ZM8.1237 12.1875C8.1237 12.4026 8.21307 12.609 8.36519 12.7611C8.51732 12.9132 8.72366 12.9987 8.9388 12.9987C9.15394 12.9987 9.36028 12.9132 9.51241 12.7611C9.66453 12.609 9.75 12.4026 9.75 12.1875C9.75 11.9724 9.66453 11.766 9.51241 11.6139C9.36028 11.4618 9.15394 11.3724 8.9388 11.3724C8.72366 11.3724 8.51732 11.4618 8.36519 11.6139C8.21307 11.766 8.1237 11.9724 8.1237 12.1875ZM21.1263 12.1875C21.1263 12.4026 21.2118 12.609 21.3639 12.7611C21.516 12.9132 21.7224 12.9987 21.9375 12.9987C22.1526 12.9987 22.359 12.9132 22.5111 12.7611C22.6632 12.609 22.7487 12.4026 22.7487 12.1875C22.7487 11.9724 22.6632 11.766 22.5111 11.6139C22.359 11.4618 22.1526 11.3724 21.9375 11.3724C21.7224 11.3724 21.516 11.4618 21.3639 11.6139C21.2118 11.766 21.1263 11.9724 21.1263 12.1875ZM22.7487 12.1875C22.7487 12.4026 22.8381 12.609 22.9902 12.7611C23.1423 12.9132 23.3487 12.9987 23.5638 12.9987C23.7789 12.9987 23.9853 12.9132 24.1374 12.7611C24.2895 12.609 24.375 12.4026 24.375 12.1875C24.375 11.9724 24.2895 11.766 24.1374 11.6139C23.9853 11.4618 23.7789 11.3724 23.5638 11.3724C23.3487 11.3724 23.1423 11.4618 22.9902 11.6139C22.8381 11.766 22.7487 11.9724 22.7487 12.1875ZM32.5026 12.1875C32.5026 12.294 32.5236 12.3995 32.5643 12.4979C32.6051 12.5964 32.6649 12.6858 32.7402 12.7611C32.8155 12.8364 32.9049 12.8962 33.0034 12.937C33.1018 12.9777 33.2073 12.9987 33.3138 12.9987C33.4203 12.9987 33.5258 12.9777 33.6242 12.937C33.7227 12.8962 33.8121 12.8364 33.8874 12.7611C33.9627 12.6858 34.0225 12.5964 34.0633 12.4979C34.104 12.3995 34.125 12.294 34.125 12.1875C34.125 12.081 34.104 11.9755 34.0633 11.8771C34.0225 11.7786 33.9627 11.6892 33.8874 11.6139C33.8121 11.5386 33.7227 11.4788 33.6242 11.438C33.5258 11.3973 33.4203 11.3724 33.3138 11.3724C33.2073 11.3724 33.1018 11.3973 33.0034 11.438C32.9049 11.4788 32.8155 11.5386 32.7402 11.6139C32.6649 11.6892 32.6051 11.7786 32.5643 11.8771C32.5236 11.9755 32.5026 12.081 32.5026 12.1875ZM34.125 12.1875C34.125 12.4026 34.2105 12.609 34.3626 12.7611C34.5147 12.9132 34.7211 12.9987 34.9362 12.9987C35.1513 12.9987 35.3577 12.9132 35.5098 12.7611C35.6619 12.609 35.7474 12.4026 35.7474 12.1875C35.7474 11.9724 35.6619 11.766 35.5098 11.6139C35.3577 11.4618 35.1513 11.3724 34.9362 11.3724C34.7211 11.3724 34.5147 11.4618 34.3626 11.6139C34.2105 11.766 34.125 11.9724 34.125 12.1875ZM6.5013 13.8138C6.5013 14.0289 6.58677 14.2353 6.7389 14.3874C6.89102 14.5395 7.09736 14.625 7.3125 14.625C7.52764 14.625 7.73398 14.5395 7.8861 14.3874C8.03823 14.2353 8.1237 14.0289 8.1237 13.8138C8.1237 13.5987 8.03823 13.3923 7.8861 13.2402C7.73398 13.0881 7.52764 12.9987 7.3125 12.9987C7.09736 12.9987 6.89102 13.0881 6.7389 13.2402C6.58677 13.3923 6.5013 13.5987 6.5013 13.8138ZM8.1237 13.8138C8.1237 14.0289 8.21307 14.2353 8.36519 14.3874C8.51732 14.5395 8.72366 14.625 8.9388 14.625C9.15394 14.625 9.36028 14.5395 9.51241 14.3874C9.66453 14.2353 9.75 14.0289 9.75 13.8138C9.75 13.5987 9.66453 13.3923 9.51241 13.2402C9.36028 13.0881 9.15394 12.9987 8.9388 12.9987C8.72366 12.9987 8.51732 13.0881 8.36519 13.2402C8.21307 13.3923 8.1237 13.5987 8.1237 13.8138ZM21.1263 13.8138C21.1263 14.0289 21.2118 14.2353 21.3639 14.3874C21.516 14.5395 21.7224 14.625 21.9375 14.625C22.1526 14.625 22.359 14.5395 22.5111 14.3874C22.6632 14.2353 22.7487 14.0289 22.7487 13.8138C22.7487 13.5987 22.6632 13.3923 22.5111 13.2402C22.359 13.0881 22.1526 12.9987 21.9375 12.9987C21.7224 12.9987 21.516 13.0881 21.3639 13.2402C21.2118 13.3923 21.1263 13.5987 21.1263 13.8138ZM22.7487 13.8138C22.7487 14.0289 22.8381 14.2353 22.9902 14.3874C23.1423 14.5395 23.3487 14.625 23.5638 14.625C23.7789 14.625 23.9853 14.5395 24.1374 14.3874C24.2895 14.2353 24.375 14.0289 24.375 13.8138C24.375 13.5987 24.2895 13.3923 24.1374 13.2402C23.9853 13.0881 23.7789 12.9987 23.5638 12.9987C23.3487 12.9987 23.1423 13.0881 22.9902 13.2402C22.8381 13.3923 22.7487 13.5987 22.7487 13.8138ZM6.5013 15.4362C6.5013 15.6513 6.58677 15.8577 6.7389 16.0098C6.89102 16.1619 7.09736 16.2474 7.3125 16.2474C7.52764 16.2474 7.73398 16.1619 7.8861 16.0098C8.03823 15.8577 8.1237 15.6513 8.1237 15.4362C8.1237 15.2211 8.03823 15.0147 7.8861 14.8626C7.73398 14.7105 7.52764 14.625 7.3125 14.625C7.09736 14.625 6.89102 14.7105 6.7389 14.8626C6.58677 15.0147 6.5013 15.2211 6.5013 15.4362ZM8.1237 15.4362C8.1237 15.6513 8.21307 15.8577 8.36519 16.0098C8.51732 16.1619 8.72366 16.2474 8.9388 16.2474C9.15394 16.2474 9.36028 16.1619 9.51241 16.0098C9.66453 15.8577 9.75 15.6513 9.75 15.4362C9.75 15.2211 9.66453 15.0147 9.51241 14.8626C9.36028 14.7105 9.15394 14.625 8.9388 14.625C8.72366 14.625 8.51732 14.7105 8.36519 14.8626C8.21307 15.0147 8.1237 15.2211 8.1237 15.4362ZM21.1263 15.4362C21.1263 15.6513 21.2118 15.8577 21.3639 16.0098C21.516 16.1619 21.7224 16.2474 21.9375 16.2474C22.1526 16.2474 22.359 16.1619 22.5111 16.0098C22.6632 15.8577 22.7487 15.6513 22.7487 15.4362C22.7487 15.2211 22.6632 15.0147 22.5111 14.8626C22.359 14.7105 22.1526 14.625 21.9375 14.625C21.7224 14.625 21.516 14.7105 21.3639 14.8626C21.2118 15.0147 21.1263 15.2211 21.1263 15.4362ZM22.7487 15.4362C22.7487 15.6513 22.8381 15.8577 22.9902 16.0098C23.1423 16.1619 23.3487 16.2474 23.5638 16.2474C23.7789 16.2474 23.9853 16.1619 24.1374 16.0098C24.2895 15.8577 24.375 15.6513 24.375 15.4362C24.375 15.2211 24.2895 15.0147 24.1374 14.8626C23.9853 14.7105 23.7789 14.625 23.5638 14.625C23.3487 14.625 23.1423 14.7105 22.9902 14.8626C22.8381 15.0147 22.7487 15.2211 22.7487 15.4362ZM19.5 17.0625C19.5 17.2776 19.5855 17.484 19.7376 17.6361C19.8897 17.7882 20.0961 17.8737 20.3112 17.8737C20.5263 17.8737 20.7327 17.7882 20.8848 17.6361C21.0369 17.484 21.1224 17.2776 21.1224 17.0625C21.1224 16.8474 21.0369 16.641 20.8848 16.4889C20.7327 16.3368 20.5263 16.2513 20.3112 16.2513C20.0961 16.2513 19.8897 16.3368 19.7376 16.4889C19.5855 16.641 19.5 16.8474 19.5 17.0625ZM21.1224 17.0625C21.1224 17.2776 21.2118 17.484 21.3639 17.6361C21.516 17.7882 21.7224 17.8737 21.9375 17.8737C22.1526 17.8737 22.359 17.7882 22.5111 17.6361C22.6632 17.484 22.7487 17.2776 22.7487 17.0625C22.7487 16.8474 22.6632 16.641 22.5111 16.4889C22.359 16.3368 22.1526 16.2474 21.9375 16.2474C21.7224 16.2474 21.516 16.3368 21.3639 16.4889C21.2118 16.641 21.1224 16.8474 21.1224 17.0625ZM22.7487 17.0625C22.7487 17.2776 22.8381 17.484 22.9902 17.6361C23.1423 17.7882 23.3487 17.8737 23.5638 17.8737C23.7789 17.8737 23.9853 17.7882 24.1374 17.6361C24.2895 17.484 24.375 17.2776 24.375 17.0625C24.375 16.8474 24.2895 16.641 24.1374 16.4889C23.9853 16.3368 23.7789 16.2474 23.5638 16.2474C23.3487 16.2474 23.1423 16.3368 22.9902 16.4889C22.8381 16.641 22.7487 16.8474 22.7487 17.0625ZM24.375 17.0625C24.375 17.2776 24.4605 17.484 24.6126 17.6361C24.7647 17.7882 24.9711 17.8737 25.1862 17.8737C25.4013 17.8737 25.6077 17.7882 25.7598 17.6361C25.9119 17.484 25.9974 17.2776 25.9974 17.0625C25.9974 16.8474 25.9119 16.641 25.7598 16.4889C25.6077 16.3368 25.4013 16.2513 25.1862 16.2513C24.9711 16.2513 24.7647 16.3368 24.6126 16.4889C24.4605 16.641 24.375 16.8474 24.375 17.0625ZM19.5 18.6888C19.5 18.9039 19.5855 19.1103 19.7376 19.2624C19.8897 19.4145 20.0961 19.5 20.3112 19.5C20.5263 19.5 20.7327 19.4145 20.8848 19.2624C21.0369 19.1103 21.1224 18.9039 21.1224 18.6888C21.1224 18.4737 21.0369 18.2673 20.8848 18.1152C20.7327 17.9631 20.5263 17.8737 20.3112 17.8737C20.0961 17.8737 19.8897 17.9631 19.7376 18.1152C19.5855 18.2673 19.5 18.4737 19.5 18.6888ZM21.1224 18.6888C21.1224 18.9039 21.2118 19.1103 21.3639 19.2624C21.516 19.4145 21.7224 19.5 21.9375 19.5C22.1526 19.5 22.359 19.4145 22.5111 19.2624C22.6632 19.1103 22.7487 18.9039 22.7487 18.6888C22.7487 18.4737 22.6632 18.2673 22.5111 18.1152C22.359 17.9631 22.1526 17.8737 21.9375 17.8737C21.7224 17.8737 21.516 17.9631 21.3639 18.1152C21.2118 18.2673 21.1224 18.4737 21.1224 18.6888ZM22.7487 18.6888C22.7487 18.9039 22.8381 19.1103 22.9902 19.2624C23.1423 19.4145 23.3487 19.5 23.5638 19.5C23.7789 19.5 23.9853 19.4145 24.1374 19.2624C24.2895 19.1103 24.375 18.9039 24.375 18.6888C24.375 18.4737 24.2895 18.2673 24.1374 18.1152C23.9853 17.9631 23.7789 17.8737 23.5638 17.8737C23.3487 17.8737 23.1423 17.9631 22.9902 18.1152C22.8381 18.2673 22.7487 18.4737 22.7487 18.6888ZM24.375 18.6888C24.375 18.9039 24.4605 19.1103 24.6126 19.2624C24.7647 19.4145 24.9711 19.5 25.1862 19.5C25.4013 19.5 25.6077 19.4145 25.7598 19.2624C25.9119 19.1103 25.9974 18.9039 25.9974 18.6888C25.9974 18.4737 25.9119 18.2673 25.7598 18.1152C25.6077 17.9631 25.4013 17.8737 25.1862 17.8737C24.9711 17.8737 24.7647 17.9631 24.6126 18.1152C24.4605 18.2673 24.375 18.4737 24.375 18.6888ZM17.8776 20.3112C17.8776 20.5263 17.9631 20.7327 18.1152 20.8848C18.2673 21.0369 18.4737 21.1224 18.6888 21.1224C18.9039 21.1224 19.1103 21.0369 19.2624 20.8848C19.4145 20.7327 19.5 20.5263 19.5 20.3112C19.5 20.0961 19.4145 19.8897 19.2624 19.7376C19.1103 19.5855 18.9039 19.5 18.6888 19.5C18.4737 19.5 18.2673 19.5855 18.1152 19.7376C17.9631 19.8897 17.8776 20.0961 17.8776 20.3112ZM19.5 20.3112C19.5 20.5263 19.5855 20.7327 19.7376 20.8848C19.8897 21.0369 20.0961 21.1224 20.3112 21.1224C20.5263 21.1224 20.7327 21.0369 20.8848 20.8848C21.0369 20.7327 21.1224 20.5263 21.1224 20.3112C21.1224 20.0961 21.0369 19.8897 20.8848 19.7376C20.7327 19.5855 20.5263 19.5 20.3112 19.5C20.0961 19.5 19.8897 19.5855 19.7376 19.7376C19.5855 19.8897 19.5 20.0961 19.5 20.3112ZM21.1224 20.3112C21.1224 20.5263 21.2118 20.7327 21.3639 20.8848C21.516 21.0369 21.7224 21.1224 21.9375 21.1224C22.1526 21.1224 22.359 21.0369 22.5111 20.8848C22.6632 20.7327 22.7487 20.5263 22.7487 20.3112C22.7487 20.0961 22.6632 19.8897 22.5111 19.7376C22.359 19.5855 22.1526 19.5 21.9375 19.5C21.7224 19.5 21.516 19.5855 21.3639 19.7376C21.2118 19.8897 21.1224 20.0961 21.1224 20.3112ZM22.7487 20.3112C22.7487 20.5263 22.8381 20.7327 22.9902 20.8848C23.1423 21.0369 23.3487 21.1224 23.5638 21.1224C23.7789 21.1224 23.9853 21.0369 24.1374 20.8848C24.2895 20.7327 24.375 20.5263 24.375 20.3112C24.375 20.0961 24.2895 19.8897 24.1374 19.7376C23.9853 19.5855 23.7789 19.5 23.5638 19.5C23.3487 19.5 23.1423 19.5855 22.9902 19.7376C22.8381 19.8897 22.7487 20.0961 22.7487 20.3112ZM24.375 20.3112C24.375 20.5263 24.4605 20.7327 24.6126 20.8848C24.7647 21.0369 24.9711 21.1224 25.1862 21.1224C25.4013 21.1224 25.6077 21.0369 25.7598 20.8848C25.9119 20.7327 25.9974 20.5263 25.9974 20.3112C25.9974 20.0961 25.9119 19.8897 25.7598 19.7376C25.6077 19.5855 25.4013 19.5 25.1862 19.5C24.9711 19.5 24.7647 19.5855 24.6126 19.7376C24.4605 19.8897 24.375 20.0961 24.375 20.3112ZM25.9974 20.3112C25.9974 20.5263 26.0868 20.7327 26.2389 20.8848C26.391 21.0369 26.5974 21.1224 26.8125 21.1224C27.0276 21.1224 27.234 21.0369 27.3861 20.8848C27.5382 20.7327 27.6237 20.5263 27.6237 20.3112C27.6237 20.0961 27.5382 19.8897 27.3861 19.7376C27.234 19.5855 27.0276 19.5 26.8125 19.5C26.5974 19.5 26.391 19.5855 26.2389 19.7376C26.0868 19.8897 25.9974 20.0961 25.9974 20.3112ZM14.625 21.9375C14.625 22.1526 14.7105 22.359 14.8626 22.5111C15.0147 22.6632 15.2211 22.7487 15.4362 22.7487C15.6513 22.7487 15.8577 22.6632 16.0098 22.5111C16.1619 22.359 16.2474 22.1526 16.2474 21.9375C16.2474 21.7224 16.1619 21.516 16.0098 21.3639C15.8577 21.2118 15.6513 21.1263 15.4362 21.1263C15.2211 21.1263 15.0147 21.2118 14.8626 21.3639C14.7105 21.516 14.625 21.7224 14.625 21.9375ZM16.2474 21.9375C16.2474 22.1526 16.3368 22.359 16.4889 22.5111C16.641 22.6632 16.8474 22.7487 17.0625 22.7487C17.2776 22.7487 17.484 22.6632 17.6361 22.5111C17.7882 22.359 17.8737 22.1526 17.8737 21.9375C17.8737 21.7224 17.7882 21.516 17.6361 21.3639C17.484 21.2118 17.2776 21.1263 17.0625 21.1263C16.8474 21.1263 16.641 21.2118 16.4889 21.3639C16.3368 21.516 16.2474 21.7224 16.2474 21.9375ZM17.8737 21.9375C17.8737 22.1526 17.9631 22.359 18.1152 22.5111C18.2673 22.6632 18.4737 22.7487 18.6888 22.7487C18.9039 22.7487 19.1103 22.6632 19.2624 22.5111C19.4145 22.359 19.5 22.1526 19.5 21.9375C19.5 21.7224 19.4145 21.516 19.2624 21.3639C19.1103 21.2118 18.9039 21.1224 18.6888 21.1224C18.4737 21.1224 18.2673 21.2118 18.1152 21.3639C17.9631 21.516 17.8737 21.7224 17.8737 21.9375ZM19.5 21.9375C19.5 22.1526 19.5855 22.359 19.7376 22.5111C19.8897 22.6632 20.0961 22.7487 20.3112 22.7487C20.5263 22.7487 20.7327 22.6632 20.8848 22.5111C21.0369 22.359 21.1224 22.1526 21.1224 21.9375C21.1224 21.7224 21.0369 21.516 20.8848 21.3639C20.7327 21.2118 20.5263 21.1224 20.3112 21.1224C20.0961 21.1224 19.8897 21.2118 19.7376 21.3639C19.5855 21.516 19.5 21.7224 19.5 21.9375ZM21.1224 21.9375C21.1224 22.1526 21.2118 22.359 21.3639 22.5111C21.516 22.6632 21.7224 22.7487 21.9375 22.7487C22.1526 22.7487 22.359 22.6632 22.5111 22.5111C22.6632 22.359 22.7487 22.1526 22.7487 21.9375C22.7487 21.7224 22.6632 21.516 22.5111 21.3639C22.359 21.2118 22.1526 21.1224 21.9375 21.1224C21.7224 21.1224 21.516 21.2118 21.3639 21.3639C21.2118 21.516 21.1224 21.7224 21.1224 21.9375ZM22.7487 21.9375C22.7487 22.1526 22.8381 22.359 22.9902 22.5111C23.1423 22.6632 23.3487 22.7487 23.5638 22.7487C23.7789 22.7487 23.9853 22.6632 24.1374 22.5111C24.2895 22.359 24.375 22.1526 24.375 21.9375C24.375 21.7224 24.2895 21.516 24.1374 21.3639C23.9853 21.2118 23.7789 21.1224 23.5638 21.1224C23.3487 21.1224 23.1423 21.2118 22.9902 21.3639C22.8381 21.516 22.7487 21.7224 22.7487 21.9375ZM24.375 21.9375C24.375 22.1526 24.4605 22.359 24.6126 22.5111C24.7647 22.6632 24.9711 22.7487 25.1862 22.7487C25.4013 22.7487 25.6077 22.6632 25.7598 22.5111C25.9119 22.359 25.9974 22.1526 25.9974 21.9375C25.9974 21.7224 25.9119 21.516 25.7598 21.3639C25.6077 21.2118 25.4013 21.1224 25.1862 21.1224C24.9711 21.1224 24.7647 21.2118 24.6126 21.3639C24.4605 21.516 24.375 21.7224 24.375 21.9375ZM25.9974 21.9375C25.9974 22.1526 26.0868 22.359 26.2389 22.5111C26.391 22.6632 26.5974 22.7487 26.8125 22.7487C27.0276 22.7487 27.234 22.6632 27.3861 22.5111C27.5382 22.359 27.6237 22.1526 27.6237 21.9375C27.6237 21.7224 27.5382 21.516 27.3861 21.3639C27.234 21.2118 27.0276 21.1224 26.8125 21.1224C26.5974 21.1224 26.391 21.2118 26.2389 21.3639C26.0868 21.516 25.9974 21.7224 25.9974 21.9375ZM27.6237 21.9375C27.6237 22.1526 27.7131 22.359 27.8652 22.5111C28.0173 22.6632 28.2237 22.7487 28.4388 22.7487C28.6539 22.7487 28.8603 22.6632 29.0124 22.5111C29.1645 22.359 29.25 22.1526 29.25 21.9375C29.25 21.7224 29.1645 21.516 29.0124 21.3639C28.8603 21.2118 28.6539 21.1263 28.4388 21.1263C28.2237 21.1263 28.0173 21.2118 27.8652 21.3639C27.7131 21.516 27.6237 21.7224 27.6237 21.9375ZM29.25 21.9375C29.25 22.1526 29.3355 22.359 29.4876 22.5111C29.6397 22.6632 29.8461 22.7487 30.0612 22.7487C30.2763 22.7487 30.4827 22.6632 30.6348 22.5111C30.7869 22.359 30.8724 22.1526 30.8724 21.9375C30.8724 21.7224 30.7869 21.516 30.6348 21.3639C30.4827 21.2118 30.2763 21.1263 30.0612 21.1263C29.8461 21.1263 29.6397 21.2118 29.4876 21.3639C29.3355 21.516 29.25 21.7224 29.25 21.9375ZM8.1276 23.5638C8.1276 23.7789 8.21307 23.9853 8.36519 24.1374C8.51732 24.2895 8.72366 24.375 8.9388 24.375C9.15394 24.375 9.36028 24.2895 9.51241 24.1374C9.66453 23.9853 9.75 23.7789 9.75 23.5638C9.75 23.3487 9.66453 23.1423 9.51241 22.9902C9.36028 22.8381 9.15394 22.7526 8.9388 22.7526C8.72366 22.7526 8.51732 22.8381 8.36519 22.9902C8.21307 23.1423 8.1276 23.3487 8.1276 23.5638ZM9.75 23.5638C9.75 23.6703 9.77098 23.7758 9.81175 23.8742C9.85252 23.9727 9.91227 24.0621 9.9876 24.1374C10.0629 24.2127 10.1523 24.2725 10.2508 24.3133C10.3492 24.354 10.4547 24.375 10.5612 24.375C10.6677 24.375 10.7732 24.354 10.8716 24.3133C10.9701 24.2725 11.0595 24.2127 11.1348 24.1374C11.2101 24.0621 11.2699 23.9727 11.3107 23.8742C11.3514 23.7758 11.3724 23.6703 11.3724 23.5638C11.3724 23.3487 11.2869 23.1423 11.1348 22.9902C10.9827 22.8381 10.7763 22.7526 10.5612 22.7526C10.3461 22.7526 10.1397 22.8381 9.9876 22.9902C9.83547 23.1423 9.75 23.3487 9.75 23.5638ZM11.3724 23.5638C11.3724 23.7789 11.4618 23.9853 11.6139 24.1374C11.766 24.2895 11.9724 24.375 12.1875 24.375C12.4026 24.375 12.609 24.2895 12.7611 24.1374C12.9132 23.9853 12.9987 23.7789 12.9987 23.5638C12.9987 23.4573 12.9777 23.3518 12.937 23.2534C12.8962 23.1549 12.8364 23.0655 12.7611 22.9902C12.6858 22.9149 12.5964 22.8551 12.4979 22.8143C12.3995 22.7736 12.294 22.7526 12.1875 22.7526C12.081 22.7526 11.9755 22.7736 11.8771 22.8143C11.7786 22.8551 11.6892 22.9149 11.6139 22.9902C11.5386 23.0655 11.4788 23.1549 11.438 23.2534C11.3973 23.3518 11.3724 23.4573 11.3724 23.5638ZM12.9987 23.5638C12.9987 23.6703 13.0236 23.7758 13.0643 23.8742C13.1051 23.9727 13.1649 24.0621 13.2402 24.1374C13.3155 24.2127 13.4049 24.2725 13.5034 24.3133C13.6018 24.354 13.7073 24.375 13.8138 24.375C13.9203 24.375 14.0258 24.354 14.1242 24.3133C14.2227 24.2725 14.3121 24.2127 14.3874 24.1374C14.4627 24.0621 14.5225 23.9727 14.5633 23.8742C14.604 23.7758 14.625 23.6703 14.625 23.5638C14.625 23.4573 14.604 23.3518 14.5633 23.2534C14.5225 23.1549 14.4627 23.0655 14.3874 22.9902C14.3121 22.9149 14.2227 22.8551 14.1242 22.8143C14.0258 22.7736 13.9203 22.7526 13.8138 22.7526C13.7073 22.7526 13.6018 22.7736 13.5034 22.8143C13.4049 22.8551 13.3155 22.9149 13.2402 22.9902C13.1649 23.0655 13.1051 23.1549 13.0643 23.2534C13.0236 23.3518 12.9987 23.4573 12.9987 23.5638ZM14.625 23.5638C14.625 23.7789 14.7105 23.9853 14.8626 24.1374C15.0147 24.2895 15.2211 24.375 15.4362 24.375C15.6513 24.375 15.8577 24.2895 16.0098 24.1374C16.1619 23.9853 16.2474 23.7789 16.2474 23.5638C16.2474 23.3487 16.1619 23.1423 16.0098 22.9902C15.8577 22.8381 15.6513 22.7487 15.4362 22.7487C15.2211 22.7487 15.0147 22.8381 14.8626 22.9902C14.7105 23.1423 14.625 23.3487 14.625 23.5638ZM16.2474 23.5638C16.2474 23.7789 16.3368 23.9853 16.4889 24.1374C16.641 24.2895 16.8474 24.375 17.0625 24.375C17.2776 24.375 17.484 24.2895 17.6361 24.1374C17.7882 23.9853 17.8737 23.7789 17.8737 23.5638C17.8737 23.3487 17.7882 23.1423 17.6361 22.9902C17.484 22.8381 17.2776 22.7487 17.0625 22.7487C16.8474 22.7487 16.641 22.8381 16.4889 22.9902C16.3368 23.1423 16.2474 23.3487 16.2474 23.5638ZM17.8737 23.5638C17.8737 23.7789 17.9631 23.9853 18.1152 24.1374C18.2673 24.2895 18.4737 24.375 18.6888 24.375C18.9039 24.375 19.1103 24.2895 19.2624 24.1374C19.4145 23.9853 19.5 23.7789 19.5 23.5638C19.5 23.3487 19.4145 23.1423 19.2624 22.9902C19.1103 22.8381 18.9039 22.7487 18.6888 22.7487C18.4737 22.7487 18.2673 22.8381 18.1152 22.9902C17.9631 23.1423 17.8737 23.3487 17.8737 23.5638ZM19.5 23.5638C19.5 23.7789 19.5855 23.9853 19.7376 24.1374C19.8897 24.2895 20.0961 24.375 20.3112 24.375C20.5263 24.375 20.7327 24.2895 20.8848 24.1374C21.0369 23.9853 21.1224 23.7789 21.1224 23.5638C21.1224 23.3487 21.0369 23.1423 20.8848 22.9902C20.7327 22.8381 20.5263 22.7487 20.3112 22.7487C20.0961 22.7487 19.8897 22.8381 19.7376 22.9902C19.5855 23.1423 19.5 23.3487 19.5 23.5638ZM21.1224 23.5638C21.1224 23.7789 21.2118 23.9853 21.3639 24.1374C21.516 24.2895 21.7224 24.375 21.9375 24.375C22.1526 24.375 22.359 24.2895 22.5111 24.1374C22.6632 23.9853 22.7487 23.7789 22.7487 23.5638C22.7487 23.3487 22.6632 23.1423 22.5111 22.9902C22.359 22.8381 22.1526 22.7487 21.9375 22.7487C21.7224 22.7487 21.516 22.8381 21.3639 22.9902C21.2118 23.1423 21.1224 23.3487 21.1224 23.5638ZM22.7487 23.5638C22.7487 23.7789 22.8381 23.9853 22.9902 24.1374C23.1423 24.2895 23.3487 24.375 23.5638 24.375C23.7789 24.375 23.9853 24.2895 24.1374 24.1374C24.2895 23.9853 24.375 23.7789 24.375 23.5638C24.375 23.3487 24.2895 23.1423 24.1374 22.9902C23.9853 22.8381 23.7789 22.7487 23.5638 22.7487C23.3487 22.7487 23.1423 22.8381 22.9902 22.9902C22.8381 23.1423 22.7487 23.3487 22.7487 23.5638ZM24.375 23.5638C24.375 23.7789 24.4605 23.9853 24.6126 24.1374C24.7647 24.2895 24.9711 24.375 25.1862 24.375C25.4013 24.375 25.6077 24.2895 25.7598 24.1374C25.9119 23.9853 25.9974 23.7789 25.9974 23.5638C25.9974 23.3487 25.9119 23.1423 25.7598 22.9902C25.6077 22.8381 25.4013 22.7487 25.1862 22.7487C24.9711 22.7487 24.7647 22.8381 24.6126 22.9902C24.4605 23.1423 24.375 23.3487 24.375 23.5638ZM25.9974 23.5638C25.9974 23.7789 26.0868 23.9853 26.2389 24.1374C26.391 24.2895 26.5974 24.375 26.8125 24.375C27.0276 24.375 27.234 24.2895 27.3861 24.1374C27.5382 23.9853 27.6237 23.7789 27.6237 23.5638C27.6237 23.3487 27.5382 23.1423 27.3861 22.9902C27.234 22.8381 27.0276 22.7487 26.8125 22.7487C26.5974 22.7487 26.391 22.8381 26.2389 22.9902C26.0868 23.1423 25.9974 23.3487 25.9974 23.5638ZM27.6237 23.5638C27.6237 23.7789 27.7131 23.9853 27.8652 24.1374C28.0173 24.2895 28.2237 24.375 28.4388 24.375C28.6539 24.375 28.8603 24.2895 29.0124 24.1374C29.1645 23.9853 29.25 23.7789 29.25 23.5638C29.25 23.3487 29.1645 23.1423 29.0124 22.9902C28.8603 22.8381 28.6539 22.7487 28.4388 22.7487C28.2237 22.7487 28.0173 22.8381 27.8652 22.9902C27.7131 23.1423 27.6237 23.3487 27.6237 23.5638ZM29.25 23.5638C29.25 23.7789 29.3355 23.9853 29.4876 24.1374C29.6397 24.2895 29.8461 24.375 30.0612 24.375C30.2763 24.375 30.4827 24.2895 30.6348 24.1374C30.7869 23.9853 30.8724 23.7789 30.8724 23.5638C30.8724 23.3487 30.7869 23.1423 30.6348 22.9902C30.4827 22.8381 30.2763 22.7487 30.0612 22.7487C29.8461 22.7487 29.6397 22.8381 29.4876 22.9902C29.3355 23.1423 29.25 23.3487 29.25 23.5638ZM30.8724 23.5638C30.8724 23.7789 30.9618 23.9853 31.1139 24.1374C31.266 24.2895 31.4724 24.375 31.6875 24.375C31.9026 24.375 32.109 24.2895 32.2611 24.1374C32.4132 23.9853 32.4987 23.7789 32.4987 23.5638C32.4987 23.3487 32.4132 23.1423 32.2611 22.9902C32.109 22.8381 31.9026 22.7526 31.6875 22.7526C31.4724 22.7526 31.266 22.8381 31.1139 22.9902C30.9618 23.1423 30.8724 23.3487 30.8724 23.5638ZM32.4987 23.5638C32.4987 23.6703 32.5236 23.7758 32.5643 23.8742C32.6051 23.9727 32.6649 24.0621 32.7402 24.1374C32.8155 24.2127 32.9049 24.2725 33.0034 24.3133C33.1018 24.354 33.2073 24.375 33.3138 24.375C33.4203 24.375 33.5258 24.354 33.6242 24.3133C33.7227 24.2725 33.8121 24.2127 33.8874 24.1374C33.9627 24.0621 34.0225 23.9727 34.0633 23.8742C34.104 23.7758 34.125 23.6703 34.125 23.5638C34.125 23.4573 34.104 23.3518 34.0633 23.2534C34.0225 23.1549 33.9627 23.0655 33.8874 22.9902C33.8121 22.9149 33.7227 22.8551 33.6242 22.8143C33.5258 22.7736 33.4203 22.7526 33.3138 22.7526C33.2073 22.7526 33.1018 22.7736 33.0034 22.8143C32.9049 22.8551 32.8155 22.9149 32.7402 22.9902C32.6649 23.0655 32.6051 23.1549 32.5643 23.2534C32.5236 23.3518 32.4987 23.4573 32.4987 23.5638ZM34.125 23.5638C34.125 23.7789 34.2105 23.9853 34.3626 24.1374C34.5147 24.2895 34.7211 24.375 34.9362 24.375C35.1513 24.375 35.3577 24.2895 35.5098 24.1374C35.6619 23.9853 35.7474 23.7789 35.7474 23.5638C35.7474 23.3487 35.6619 23.1423 35.5098 22.9902C35.3577 22.8381 35.1513 22.7526 34.9362 22.7526C34.7211 22.7526 34.5147 22.8381 34.3626 22.9902C34.2105 23.1423 34.125 23.3487 34.125 23.5638ZM35.7474 23.5638C35.7474 23.7789 35.8368 23.9853 35.9889 24.1374C36.141 24.2895 36.3474 24.375 36.5625 24.375C36.7776 24.375 36.984 24.2895 37.1361 24.1374C37.2882 23.9853 37.3737 23.7789 37.3737 23.5638C37.3737 23.3487 37.2882 23.1423 37.1361 22.9902C36.984 22.8381 36.7776 22.7526 36.5625 22.7526C36.3474 22.7526 36.141 22.8381 35.9889 22.9902C35.8368 23.1423 35.7474 23.3487 35.7474 23.5638ZM8.1276 25.1862C8.1276 25.4013 8.21307 25.6077 8.36519 25.7598C8.51732 25.9119 8.72366 25.9974 8.9388 25.9974C9.15394 25.9974 9.36028 25.9119 9.51241 25.7598C9.66453 25.6077 9.75 25.4013 9.75 25.1862C9.75 24.9711 9.66453 24.7647 9.51241 24.6126C9.36028 24.4605 9.15394 24.375 8.9388 24.375C8.72366 24.375 8.51732 24.4605 8.36519 24.6126C8.21307 24.7647 8.1276 24.9711 8.1276 25.1862ZM9.75 25.1862C9.75 25.2927 9.77098 25.3982 9.81175 25.4966C9.85252 25.5951 9.91227 25.6845 9.9876 25.7598C10.0629 25.8351 10.1523 25.8949 10.2508 25.9357C10.3492 25.9764 10.4547 25.9974 10.5612 25.9974C10.6677 25.9974 10.7732 25.9764 10.8716 25.9357C10.9701 25.8949 11.0595 25.8351 11.1348 25.7598C11.2101 25.6845 11.2699 25.5951 11.3107 25.4966C11.3514 25.3982 11.3724 25.2927 11.3724 25.1862C11.3724 24.9711 11.2869 24.7647 11.1348 24.6126C10.9827 24.4605 10.7763 24.375 10.5612 24.375C10.3461 24.375 10.1397 24.4605 9.9876 24.6126C9.83547 24.7647 9.75 24.9711 9.75 25.1862ZM11.3724 25.1862C11.3724 25.4013 11.4618 25.6077 11.6139 25.7598C11.766 25.9119 11.9724 25.9974 12.1875 25.9974C12.4026 25.9974 12.609 25.9119 12.7611 25.7598C12.9132 25.6077 12.9987 25.4013 12.9987 25.1862C12.9987 25.0797 12.9777 24.9742 12.937 24.8758C12.8962 24.7773 12.8364 24.6879 12.7611 24.6126C12.6858 24.5373 12.5964 24.4775 12.4979 24.4367C12.3995 24.396 12.294 24.375 12.1875 24.375C12.081 24.375 11.9755 24.396 11.8771 24.4367C11.7786 24.4775 11.6892 24.5373 11.6139 24.6126C11.5386 24.6879 11.4788 24.7773 11.438 24.8758C11.3973 24.9742 11.3724 25.0797 11.3724 25.1862ZM12.9987 25.1862C12.9987 25.2927 13.0236 25.3982 13.0643 25.4966C13.1051 25.5951 13.1649 25.6845 13.2402 25.7598C13.3155 25.8351 13.4049 25.8949 13.5034 25.9357C13.6018 25.9764 13.7073 25.9974 13.8138 25.9974C13.9203 25.9974 14.0258 25.9764 14.1242 25.9357C14.2227 25.8949 14.3121 25.8351 14.3874 25.7598C14.4627 25.6845 14.5225 25.5951 14.5633 25.4966C14.604 25.3982 14.625 25.2927 14.625 25.1862C14.625 25.0797 14.604 24.9742 14.5633 24.8758C14.5225 24.7773 14.4627 24.6879 14.3874 24.6126C14.3121 24.5373 14.2227 24.4775 14.1242 24.4367C14.0258 24.396 13.9203 24.375 13.8138 24.375C13.7073 24.375 13.6018 24.396 13.5034 24.4367C13.4049 24.4775 13.3155 24.5373 13.2402 24.6126C13.1649 24.6879 13.1051 24.7773 13.0643 24.8758C13.0236 24.9742 12.9987 25.0797 12.9987 25.1862ZM14.625 25.1862C14.625 25.4013 14.7105 25.6077 14.8626 25.7598C15.0147 25.9119 15.2211 25.9974 15.4362 25.9974C15.6513 25.9974 15.8577 25.9119 16.0098 25.7598C16.1619 25.6077 16.2474 25.4013 16.2474 25.1862C16.2474 24.9711 16.1619 24.7647 16.0098 24.6126C15.8577 24.4605 15.6513 24.375 15.4362 24.375C15.2211 24.375 15.0147 24.4605 14.8626 24.6126C14.7105 24.7647 14.625 24.9711 14.625 25.1862ZM16.2474 25.1862C16.2474 25.4013 16.3368 25.6077 16.4889 25.7598C16.641 25.9119 16.8474 25.9974 17.0625 25.9974C17.2776 25.9974 17.484 25.9119 17.6361 25.7598C17.7882 25.6077 17.8737 25.4013 17.8737 25.1862C17.8737 24.9711 17.7882 24.7647 17.6361 24.6126C17.484 24.4605 17.2776 24.375 17.0625 24.375C16.8474 24.375 16.641 24.4605 16.4889 24.6126C16.3368 24.7647 16.2474 24.9711 16.2474 25.1862ZM17.8737 25.1862C17.8737 25.4013 17.9631 25.6077 18.1152 25.7598C18.2673 25.9119 18.4737 25.9974 18.6888 25.9974C18.9039 25.9974 19.1103 25.9119 19.2624 25.7598C19.4145 25.6077 19.5 25.4013 19.5 25.1862C19.5 24.9711 19.4145 24.7647 19.2624 24.6126C19.1103 24.4605 18.9039 24.375 18.6888 24.375C18.4737 24.375 18.2673 24.4605 18.1152 24.6126C17.9631 24.7647 17.8737 24.9711 17.8737 25.1862ZM19.5 25.1862C19.5 25.4013 19.5855 25.6077 19.7376 25.7598C19.8897 25.9119 20.0961 25.9974 20.3112 25.9974C20.5263 25.9974 20.7327 25.9119 20.8848 25.7598C21.0369 25.6077 21.1224 25.4013 21.1224 25.1862C21.1224 24.9711 21.0369 24.7647 20.8848 24.6126C20.7327 24.4605 20.5263 24.375 20.3112 24.375C20.0961 24.375 19.8897 24.4605 19.7376 24.6126C19.5855 24.7647 19.5 24.9711 19.5 25.1862ZM21.1224 25.1862C21.1224 25.4013 21.2118 25.6077 21.3639 25.7598C21.516 25.9119 21.7224 25.9974 21.9375 25.9974C22.1526 25.9974 22.359 25.9119 22.5111 25.7598C22.6632 25.6077 22.7487 25.4013 22.7487 25.1862C22.7487 24.9711 22.6632 24.7647 22.5111 24.6126C22.359 24.4605 22.1526 24.375 21.9375 24.375C21.7224 24.375 21.516 24.4605 21.3639 24.6126C21.2118 24.7647 21.1224 24.9711 21.1224 25.1862ZM22.7487 25.1862C22.7487 25.4013 22.8381 25.6077 22.9902 25.7598C23.1423 25.9119 23.3487 25.9974 23.5638 25.9974C23.7789 25.9974 23.9853 25.9119 24.1374 25.7598C24.2895 25.6077 24.375 25.4013 24.375 25.1862C24.375 24.9711 24.2895 24.7647 24.1374 24.6126C23.9853 24.4605 23.7789 24.375 23.5638 24.375C23.3487 24.375 23.1423 24.4605 22.9902 24.6126C22.8381 24.7647 22.7487 24.9711 22.7487 25.1862ZM24.375 25.1862C24.375 25.4013 24.4605 25.6077 24.6126 25.7598C24.7647 25.9119 24.9711 25.9974 25.1862 25.9974C25.4013 25.9974 25.6077 25.9119 25.7598 25.7598C25.9119 25.6077 25.9974 25.4013 25.9974 25.1862C25.9974 24.9711 25.9119 24.7647 25.7598 24.6126C25.6077 24.4605 25.4013 24.375 25.1862 24.375C24.9711 24.375 24.7647 24.4605 24.6126 24.6126C24.4605 24.7647 24.375 24.9711 24.375 25.1862ZM25.9974 25.1862C25.9974 25.4013 26.0868 25.6077 26.2389 25.7598C26.391 25.9119 26.5974 25.9974 26.8125 25.9974C27.0276 25.9974 27.234 25.9119 27.3861 25.7598C27.5382 25.6077 27.6237 25.4013 27.6237 25.1862C27.6237 24.9711 27.5382 24.7647 27.3861 24.6126C27.234 24.4605 27.0276 24.375 26.8125 24.375C26.5974 24.375 26.391 24.4605 26.2389 24.6126C26.0868 24.7647 25.9974 24.9711 25.9974 25.1862ZM27.6237 25.1862C27.6237 25.4013 27.7131 25.6077 27.8652 25.7598C28.0173 25.9119 28.2237 25.9974 28.4388 25.9974C28.6539 25.9974 28.8603 25.9119 29.0124 25.7598C29.1645 25.6077 29.25 25.4013 29.25 25.1862C29.25 24.9711 29.1645 24.7647 29.0124 24.6126C28.8603 24.4605 28.6539 24.375 28.4388 24.375C28.2237 24.375 28.0173 24.4605 27.8652 24.6126C27.7131 24.7647 27.6237 24.9711 27.6237 25.1862ZM29.25 25.1862C29.25 25.4013 29.3355 25.6077 29.4876 25.7598C29.6397 25.9119 29.8461 25.9974 30.0612 25.9974C30.2763 25.9974 30.4827 25.9119 30.6348 25.7598C30.7869 25.6077 30.8724 25.4013 30.8724 25.1862C30.8724 24.9711 30.7869 24.7647 30.6348 24.6126C30.4827 24.4605 30.2763 24.375 30.0612 24.375C29.8461 24.375 29.6397 24.4605 29.4876 24.6126C29.3355 24.7647 29.25 24.9711 29.25 25.1862ZM30.8724 25.1862C30.8724 25.4013 30.9618 25.6077 31.1139 25.7598C31.266 25.9119 31.4724 25.9974 31.6875 25.9974C31.9026 25.9974 32.109 25.9119 32.2611 25.7598C32.4132 25.6077 32.4987 25.4013 32.4987 25.1862C32.4987 24.9711 32.4132 24.7647 32.2611 24.6126C32.109 24.4605 31.9026 24.375 31.6875 24.375C31.4724 24.375 31.266 24.4605 31.1139 24.6126C30.9618 24.7647 30.8724 24.9711 30.8724 25.1862ZM32.4987 25.1862C32.4987 25.2927 32.5236 25.3982 32.5643 25.4966C32.6051 25.5951 32.6649 25.6845 32.7402 25.7598C32.8155 25.8351 32.9049 25.8949 33.0034 25.9357C33.1018 25.9764 33.2073 25.9974 33.3138 25.9974C33.4203 25.9974 33.5258 25.9764 33.6242 25.9357C33.7227 25.8949 33.8121 25.8351 33.8874 25.7598C33.9627 25.6845 34.0225 25.5951 34.0633 25.4966C34.104 25.3982 34.125 25.2927 34.125 25.1862C34.125 25.0797 34.104 24.9742 34.0633 24.8758C34.0225 24.7773 33.9627 24.6879 33.8874 24.6126C33.8121 24.5373 33.7227 24.4775 33.6242 24.4367C33.5258 24.396 33.4203 24.375 33.3138 24.375C33.2073 24.375 33.1018 24.396 33.0034 24.4367C32.9049 24.4775 32.8155 24.5373 32.7402 24.6126C32.6649 24.6879 32.6051 24.7773 32.5643 24.8758C32.5236 24.9742 32.4987 25.0797 32.4987 25.1862ZM34.125 25.1862C34.125 25.4013 34.2105 25.6077 34.3626 25.7598C34.5147 25.9119 34.7211 25.9974 34.9362 25.9974C35.1513 25.9974 35.3577 25.9119 35.5098 25.7598C35.6619 25.6077 35.7474 25.4013 35.7474 25.1862C35.7474 24.9711 35.6619 24.7647 35.5098 24.6126C35.3577 24.4605 35.1513 24.375 34.9362 24.375C34.7211 24.375 34.5147 24.4605 34.3626 24.6126C34.2105 24.7647 34.125 24.9711 34.125 25.1862ZM35.7474 25.1862C35.7474 25.4013 35.8368 25.6077 35.9889 25.7598C36.141 25.9119 36.3474 25.9974 36.5625 25.9974C36.7776 25.9974 36.984 25.9119 37.1361 25.7598C37.2882 25.6077 37.3737 25.4013 37.3737 25.1862C37.3737 24.9711 37.2882 24.7647 37.1361 24.6126C36.984 24.4605 36.7776 24.375 36.5625 24.375C36.3474 24.375 36.141 24.4605 35.9889 24.6126C35.8368 24.7647 35.7474 24.9711 35.7474 25.1862ZM14.625 26.8125C14.625 27.0276 14.7105 27.234 14.8626 27.3861C15.0147 27.5382 15.2211 27.6237 15.4362 27.6237C15.6513 27.6237 15.8577 27.5382 16.0098 27.3861C16.1619 27.234 16.2474 27.0276 16.2474 26.8125C16.2474 26.5974 16.1619 26.391 16.0098 26.2389C15.8577 26.0868 15.6513 25.9974 15.4362 25.9974C15.2211 25.9974 15.0147 26.0868 14.8626 26.2389C14.7105 26.391 14.625 26.5974 14.625 26.8125ZM16.2474 26.8125C16.2474 27.0276 16.3368 27.234 16.4889 27.3861C16.641 27.5382 16.8474 27.6237 17.0625 27.6237C17.2776 27.6237 17.484 27.5382 17.6361 27.3861C17.7882 27.234 17.8737 27.0276 17.8737 26.8125C17.8737 26.5974 17.7882 26.391 17.6361 26.2389C17.484 26.0868 17.2776 25.9974 17.0625 25.9974C16.8474 25.9974 16.641 26.0868 16.4889 26.2389C16.3368 26.391 16.2474 26.5974 16.2474 26.8125ZM17.8737 26.8125C17.8737 27.0276 17.9631 27.234 18.1152 27.3861C18.2673 27.5382 18.4737 27.6237 18.6888 27.6237C18.9039 27.6237 19.1103 27.5382 19.2624 27.3861C19.4145 27.234 19.5 27.0276 19.5 26.8125C19.5 26.5974 19.4145 26.391 19.2624 26.2389C19.1103 26.0868 18.9039 25.9974 18.6888 25.9974C18.4737 25.9974 18.2673 26.0868 18.1152 26.2389C17.9631 26.391 17.8737 26.5974 17.8737 26.8125ZM19.5 26.8125C19.5 27.0276 19.5855 27.234 19.7376 27.3861C19.8897 27.5382 20.0961 27.6237 20.3112 27.6237C20.5263 27.6237 20.7327 27.5382 20.8848 27.3861C21.0369 27.234 21.1224 27.0276 21.1224 26.8125C21.1224 26.5974 21.0369 26.391 20.8848 26.2389C20.7327 26.0868 20.5263 25.9974 20.3112 25.9974C20.0961 25.9974 19.8897 26.0868 19.7376 26.2389C19.5855 26.391 19.5 26.5974 19.5 26.8125ZM21.1224 26.8125C21.1224 27.0276 21.2118 27.234 21.3639 27.3861C21.516 27.5382 21.7224 27.6237 21.9375 27.6237C22.1526 27.6237 22.359 27.5382 22.5111 27.3861C22.6632 27.234 22.7487 27.0276 22.7487 26.8125C22.7487 26.5974 22.6632 26.391 22.5111 26.2389C22.359 26.0868 22.1526 25.9974 21.9375 25.9974C21.7224 25.9974 21.516 26.0868 21.3639 26.2389C21.2118 26.391 21.1224 26.5974 21.1224 26.8125ZM22.7487 26.8125C22.7487 27.0276 22.8381 27.234 22.9902 27.3861C23.1423 27.5382 23.3487 27.6237 23.5638 27.6237C23.7789 27.6237 23.9853 27.5382 24.1374 27.3861C24.2895 27.234 24.375 27.0276 24.375 26.8125C24.375 26.5974 24.2895 26.391 24.1374 26.2389C23.9853 26.0868 23.7789 25.9974 23.5638 25.9974C23.3487 25.9974 23.1423 26.0868 22.9902 26.2389C22.8381 26.391 22.7487 26.5974 22.7487 26.8125ZM24.375 26.8125C24.375 27.0276 24.4605 27.234 24.6126 27.3861C24.7647 27.5382 24.9711 27.6237 25.1862 27.6237C25.4013 27.6237 25.6077 27.5382 25.7598 27.3861C25.9119 27.234 25.9974 27.0276 25.9974 26.8125C25.9974 26.5974 25.9119 26.391 25.7598 26.2389C25.6077 26.0868 25.4013 25.9974 25.1862 25.9974C24.9711 25.9974 24.7647 26.0868 24.6126 26.2389C24.4605 26.391 24.375 26.5974 24.375 26.8125ZM25.9974 26.8125C25.9974 27.0276 26.0868 27.234 26.2389 27.3861C26.391 27.5382 26.5974 27.6237 26.8125 27.6237C27.0276 27.6237 27.234 27.5382 27.3861 27.3861C27.5382 27.234 27.6237 27.0276 27.6237 26.8125C27.6237 26.5974 27.5382 26.391 27.3861 26.2389C27.234 26.0868 27.0276 25.9974 26.8125 25.9974C26.5974 25.9974 26.391 26.0868 26.2389 26.2389C26.0868 26.391 25.9974 26.5974 25.9974 26.8125ZM27.6237 26.8125C27.6237 27.0276 27.7131 27.234 27.8652 27.3861C28.0173 27.5382 28.2237 27.6237 28.4388 27.6237C28.6539 27.6237 28.8603 27.5382 29.0124 27.3861C29.1645 27.234 29.25 27.0276 29.25 26.8125C29.25 26.5974 29.1645 26.391 29.0124 26.2389C28.8603 26.0868 28.6539 25.9974 28.4388 25.9974C28.2237 25.9974 28.0173 26.0868 27.8652 26.2389C27.7131 26.391 27.6237 26.5974 27.6237 26.8125ZM29.25 26.8125C29.25 27.0276 29.3355 27.234 29.4876 27.3861C29.6397 27.5382 29.8461 27.6237 30.0612 27.6237C30.2763 27.6237 30.4827 27.5382 30.6348 27.3861C30.7869 27.234 30.8724 27.0276 30.8724 26.8125C30.8724 26.5974 30.7869 26.391 30.6348 26.2389C30.4827 26.0868 30.2763 25.9974 30.0612 25.9974C29.8461 25.9974 29.6397 26.0868 29.4876 26.2389C29.3355 26.391 29.25 26.5974 29.25 26.8125ZM17.8776 28.4388C17.8776 28.6539 17.9631 28.8603 18.1152 29.0124C18.2673 29.1645 18.4737 29.25 18.6888 29.25C18.9039 29.25 19.1103 29.1645 19.2624 29.0124C19.4145 28.8603 19.5 28.6539 19.5 28.4388C19.5 28.2237 19.4145 28.0173 19.2624 27.8652C19.1103 27.7131 18.9039 27.6237 18.6888 27.6237C18.4737 27.6237 18.2673 27.7131 18.1152 27.8652C17.9631 28.0173 17.8776 28.2237 17.8776 28.4388ZM19.5 28.4388C19.5 28.6539 19.5855 28.8603 19.7376 29.0124C19.8897 29.1645 20.0961 29.25 20.3112 29.25C20.5263 29.25 20.7327 29.1645 20.8848 29.0124C21.0369 28.8603 21.1224 28.6539 21.1224 28.4388C21.1224 28.2237 21.0369 28.0173 20.8848 27.8652C20.7327 27.7131 20.5263 27.6237 20.3112 27.6237C20.0961 27.6237 19.8897 27.7131 19.7376 27.8652C19.5855 28.0173 19.5 28.2237 19.5 28.4388ZM21.1224 28.4388C21.1224 28.6539 21.2118 28.8603 21.3639 29.0124C21.516 29.1645 21.7224 29.25 21.9375 29.25C22.1526 29.25 22.359 29.1645 22.5111 29.0124C22.6632 28.8603 22.7487 28.6539 22.7487 28.4388C22.7487 28.2237 22.6632 28.0173 22.5111 27.8652C22.359 27.7131 22.1526 27.6237 21.9375 27.6237C21.7224 27.6237 21.516 27.7131 21.3639 27.8652C21.2118 28.0173 21.1224 28.2237 21.1224 28.4388ZM22.7487 28.4388C22.7487 28.6539 22.8381 28.8603 22.9902 29.0124C23.1423 29.1645 23.3487 29.25 23.5638 29.25C23.7789 29.25 23.9853 29.1645 24.1374 29.0124C24.2895 28.8603 24.375 28.6539 24.375 28.4388C24.375 28.2237 24.2895 28.0173 24.1374 27.8652C23.9853 27.7131 23.7789 27.6237 23.5638 27.6237C23.3487 27.6237 23.1423 27.7131 22.9902 27.8652C22.8381 28.0173 22.7487 28.2237 22.7487 28.4388ZM24.375 28.4388C24.375 28.6539 24.4605 28.8603 24.6126 29.0124C24.7647 29.1645 24.9711 29.25 25.1862 29.25C25.4013 29.25 25.6077 29.1645 25.7598 29.0124C25.9119 28.8603 25.9974 28.6539 25.9974 28.4388C25.9974 28.2237 25.9119 28.0173 25.7598 27.8652C25.6077 27.7131 25.4013 27.6237 25.1862 27.6237C24.9711 27.6237 24.7647 27.7131 24.6126 27.8652C24.4605 28.0173 24.375 28.2237 24.375 28.4388ZM25.9974 28.4388C25.9974 28.6539 26.0868 28.8603 26.2389 29.0124C26.391 29.1645 26.5974 29.25 26.8125 29.25C27.0276 29.25 27.234 29.1645 27.3861 29.0124C27.5382 28.8603 27.6237 28.6539 27.6237 28.4388C27.6237 28.2237 27.5382 28.0173 27.3861 27.8652C27.234 27.7131 27.0276 27.6237 26.8125 27.6237C26.5974 27.6237 26.391 27.7131 26.2389 27.8652C26.0868 28.0173 25.9974 28.2237 25.9974 28.4388ZM19.5 30.0612C19.5 30.2763 19.5855 30.4827 19.7376 30.6348C19.8897 30.7869 20.0961 30.8724 20.3112 30.8724C20.5263 30.8724 20.7327 30.7869 20.8848 30.6348C21.0369 30.4827 21.1224 30.2763 21.1224 30.0612C21.1224 29.8461 21.0369 29.6397 20.8848 29.4876C20.7327 29.3355 20.5263 29.25 20.3112 29.25C20.0961 29.25 19.8897 29.3355 19.7376 29.4876C19.5855 29.6397 19.5 29.8461 19.5 30.0612ZM21.1224 30.0612C21.1224 30.2763 21.2118 30.4827 21.3639 30.6348C21.516 30.7869 21.7224 30.8724 21.9375 30.8724C22.1526 30.8724 22.359 30.7869 22.5111 30.6348C22.6632 30.4827 22.7487 30.2763 22.7487 30.0612C22.7487 29.8461 22.6632 29.6397 22.5111 29.4876C22.359 29.3355 22.1526 29.25 21.9375 29.25C21.7224 29.25 21.516 29.3355 21.3639 29.4876C21.2118 29.6397 21.1224 29.8461 21.1224 30.0612ZM22.7487 30.0612C22.7487 30.2763 22.8381 30.4827 22.9902 30.6348C23.1423 30.7869 23.3487 30.8724 23.5638 30.8724C23.7789 30.8724 23.9853 30.7869 24.1374 30.6348C24.2895 30.4827 24.375 30.2763 24.375 30.0612C24.375 29.8461 24.2895 29.6397 24.1374 29.4876C23.9853 29.3355 23.7789 29.25 23.5638 29.25C23.3487 29.25 23.1423 29.3355 22.9902 29.4876C22.8381 29.6397 22.7487 29.8461 22.7487 30.0612ZM24.375 30.0612C24.375 30.2763 24.4605 30.4827 24.6126 30.6348C24.7647 30.7869 24.9711 30.8724 25.1862 30.8724C25.4013 30.8724 25.6077 30.7869 25.7598 30.6348C25.9119 30.4827 25.9974 30.2763 25.9974 30.0612C25.9974 29.8461 25.9119 29.6397 25.7598 29.4876C25.6077 29.3355 25.4013 29.25 25.1862 29.25C24.9711 29.25 24.7647 29.3355 24.6126 29.4876C24.4605 29.6397 24.375 29.8461 24.375 30.0612ZM19.5 31.6875C19.5 31.9026 19.5855 32.109 19.7376 32.2611C19.8897 32.4132 20.0961 32.4987 20.3112 32.4987C20.5263 32.4987 20.7327 32.4132 20.8848 32.2611C21.0369 32.109 21.1224 31.9026 21.1224 31.6875C21.1224 31.4724 21.0369 31.266 20.8848 31.1139C20.7327 30.9618 20.5263 30.8724 20.3112 30.8724C20.0961 30.8724 19.8897 30.9618 19.7376 31.1139C19.5855 31.266 19.5 31.4724 19.5 31.6875ZM21.1224 31.6875C21.1224 31.9026 21.2118 32.109 21.3639 32.2611C21.516 32.4132 21.7224 32.4987 21.9375 32.4987C22.1526 32.4987 22.359 32.4132 22.5111 32.2611C22.6632 32.109 22.7487 31.9026 22.7487 31.6875C22.7487 31.4724 22.6632 31.266 22.5111 31.1139C22.359 30.9618 22.1526 30.8724 21.9375 30.8724C21.7224 30.8724 21.516 30.9618 21.3639 31.1139C21.2118 31.266 21.1224 31.4724 21.1224 31.6875ZM22.7487 31.6875C22.7487 31.9026 22.8381 32.109 22.9902 32.2611C23.1423 32.4132 23.3487 32.4987 23.5638 32.4987C23.7789 32.4987 23.9853 32.4132 24.1374 32.2611C24.2895 32.109 24.375 31.9026 24.375 31.6875C24.375 31.4724 24.2895 31.266 24.1374 31.1139C23.9853 30.9618 23.7789 30.8724 23.5638 30.8724C23.3487 30.8724 23.1423 30.9618 22.9902 31.1139C22.8381 31.266 22.7487 31.4724 22.7487 31.6875ZM24.375 31.6875C24.375 31.9026 24.4605 32.109 24.6126 32.2611C24.7647 32.4132 24.9711 32.4987 25.1862 32.4987C25.4013 32.4987 25.6077 32.4132 25.7598 32.2611C25.9119 32.109 25.9974 31.9026 25.9974 31.6875C25.9974 31.4724 25.9119 31.266 25.7598 31.1139C25.6077 30.9618 25.4013 30.8724 25.1862 30.8724C24.9711 30.8724 24.7647 30.9618 24.6126 31.1139C24.4605 31.266 24.375 31.4724 24.375 31.6875ZM21.1263 33.3138C21.1263 33.5289 21.2118 33.7353 21.3639 33.8874C21.516 34.0395 21.7224 34.125 21.9375 34.125C22.1526 34.125 22.359 34.0395 22.5111 33.8874C22.6632 33.7353 22.7487 33.5289 22.7487 33.3138C22.7487 33.0987 22.6632 32.8923 22.5111 32.7402C22.359 32.5881 22.1526 32.4987 21.9375 32.4987C21.7224 32.4987 21.516 32.5881 21.3639 32.7402C21.2118 32.8923 21.1263 33.0987 21.1263 33.3138ZM22.7487 33.3138C22.7487 33.5289 22.8381 33.7353 22.9902 33.8874C23.1423 34.0395 23.3487 34.125 23.5638 34.125C23.7789 34.125 23.9853 34.0395 24.1374 33.8874C24.2895 33.7353 24.375 33.5289 24.375 33.3138C24.375 33.0987 24.2895 32.8923 24.1374 32.7402C23.9853 32.5881 23.7789 32.4987 23.5638 32.4987C23.3487 32.4987 23.1423 32.5881 22.9902 32.7402C22.8381 32.8923 22.7487 33.0987 22.7487 33.3138ZM21.1263 34.9362C21.1263 35.1513 21.2118 35.3577 21.3639 35.5098C21.516 35.6619 21.7224 35.7474 21.9375 35.7474C22.1526 35.7474 22.359 35.6619 22.5111 35.5098C22.6632 35.3577 22.7487 35.1513 22.7487 34.9362C22.7487 34.7211 22.6632 34.5147 22.5111 34.3626C22.359 34.2105 22.1526 34.125 21.9375 34.125C21.7224 34.125 21.516 34.2105 21.3639 34.3626C21.2118 34.5147 21.1263 34.7211 21.1263 34.9362ZM22.7487 34.9362C22.7487 35.1513 22.8381 35.3577 22.9902 35.5098C23.1423 35.6619 23.3487 35.7474 23.5638 35.7474C23.7789 35.7474 23.9853 35.6619 24.1374 35.5098C24.2895 35.3577 24.375 35.1513 24.375 34.9362C24.375 34.7211 24.2895 34.5147 24.1374 34.3626C23.9853 34.2105 23.7789 34.125 23.5638 34.125C23.3487 34.125 23.1423 34.2105 22.9902 34.3626C22.8381 34.5147 22.7487 34.7211 22.7487 34.9362ZM21.1263 36.5625C21.1263 36.7776 21.2118 36.984 21.3639 37.1361C21.516 37.2882 21.7224 37.3737 21.9375 37.3737C22.1526 37.3737 22.359 37.2882 22.5111 37.1361C22.6632 36.984 22.7487 36.7776 22.7487 36.5625C22.7487 36.3474 22.6632 36.141 22.5111 35.9889C22.359 35.8368 22.1526 35.7474 21.9375 35.7474C21.7224 35.7474 21.516 35.8368 21.3639 35.9889C21.2118 36.141 21.1263 36.3474 21.1263 36.5625ZM22.7487 36.5625C22.7487 36.7776 22.8381 36.984 22.9902 37.1361C23.1423 37.2882 23.3487 37.3737 23.5638 37.3737C23.7789 37.3737 23.9853 37.2882 24.1374 37.1361C24.2895 36.984 24.375 36.7776 24.375 36.5625C24.375 36.3474 24.2895 36.141 24.1374 35.9889C23.9853 35.8368 23.7789 35.7474 23.5638 35.7474C23.3487 35.7474 23.1423 35.8368 22.9902 35.9889C22.8381 36.141 22.7487 36.3474 22.7487 36.5625ZM21.1263 38.1888C21.1263 38.4039 21.2118 38.6103 21.3639 38.7624C21.516 38.9145 21.7224 39 21.9375 39C22.1526 39 22.359 38.9145 22.5111 38.7624C22.6632 38.6103 22.7487 38.4039 22.7487 38.1888C22.7487 37.9737 22.6632 37.7673 22.5111 37.6152C22.359 37.4631 22.1526 37.3737 21.9375 37.3737C21.7224 37.3737 21.516 37.4631 21.3639 37.6152C21.2118 37.7673 21.1263 37.9737 21.1263 38.1888ZM22.7487 38.1888C22.7487 38.4039 22.8381 38.6103 22.9902 38.7624C23.1423 38.9145 23.3487 39 23.5638 39C23.7789 39 23.9853 38.9145 24.1374 38.7624C24.2895 38.6103 24.375 38.4039 24.375 38.1888C24.375 37.9737 24.2895 37.7673 24.1374 37.6152C23.9853 37.4631 23.7789 37.3737 23.5638 37.3737C23.3487 37.3737 23.1423 37.4631 22.9902 37.6152C22.8381 37.7673 22.7487 37.9737 22.7487 38.1888Z" fill="white"/>
</g>
<defs>
<clipPath id="clip0_1430_283">
<rect width="39" height="39" fill="white"/>
</clipPath>
</defs>
</svg>
